<svg id="BtnTertiaryIcon" xmlns="http://www.w3.org/2000/svg" width="56" height="56" viewBox="0 0 56 56">
  <g id="Ret창ngulo_1555" data-name="Ret창ngulo 1555" fill="#fff" stroke="rgba(112,112,112,0)" stroke-width="1">
    <rect width="56" height="56" rx="28" stroke="none"/>
    <rect x="0.5" y="0.5" width="55" height="55" rx="27.5" fill="white"/>
  </g>
  <g id="IconAppleStore" transform="translate(12 12)">
    <rect id="Ret창ngulo_1554" data-name="Ret창ngulo 1554" width="32" height="32" fill="fff" opacity="0"/>
    <g id="logo-apple" transform="translate(-59.981 -32)">
      <path id="Caminho_414" data-name="Caminho 414" d="M81.807,136.86c-2.521,0-3.586,1.2-5.341,1.2-1.8,0-3.173-1.194-5.357-1.194a7.309,7.309,0,0,0-5.866,3.529c-2.033,3.136-1.688,9.041,1.6,14.072,1.178,1.8,2.751,3.821,4.814,3.843H71.7c1.793,0,2.325-1.174,4.793-1.188h.038c2.431,0,2.918,1.181,4.7,1.181h.038c2.063-.022,3.72-2.26,4.9-4.054a19.505,19.505,0,0,0,1.813-3.4,6.164,6.164,0,0,1-.818-11.149,7.11,7.11,0,0,0-5.363-2.843Z" transform="translate(0 -98.305)" fill="#fff"/>
      <path id="Caminho_415" data-name="Caminho 415" d="M254.209,32a6.6,6.6,0,0,0-4.276,2.3,5.691,5.691,0,0,0-1.4,4.433h.12a5.622,5.622,0,0,0,4.188-2.195A6.1,6.1,0,0,0,254.209,32Z" transform="translate(-172.957)" fill="#fff"/>
    </g>
  </g>
</svg>
