<svg xmlns="http://www.w3.org/2000/svg" width="169.747" height="49" viewBox="0 0 169.747 49">
  <g id="Grupo_18163" data-name="Grupo 18163" transform="translate(0 0.5)">
    <path id="Frame" d="M14.1,5.458a1.729,1.729,0,0,0-1.729,1.729V8.917H26.209V7.188A1.729,1.729,0,0,0,24.48,5.458ZM29.667,9.213V7.188A5.188,5.188,0,0,0,24.48,2H14.1A5.188,5.188,0,0,0,8.917,7.188V9.213A5.188,5.188,0,0,0,5.458,14.1V16.13A5.188,5.188,0,0,0,2,21.021V31.4a5.188,5.188,0,0,0,5.188,5.188H31.4A5.188,5.188,0,0,0,36.584,31.4V21.021a5.188,5.188,0,0,0-3.458-4.891V14.1a5.188,5.188,0,0,0-3.458-4.891Zm0,6.62V14.1a1.729,1.729,0,0,0-1.729-1.729H10.646A1.729,1.729,0,0,0,8.917,14.1v1.729ZM7.188,19.292a1.729,1.729,0,0,0-1.729,1.729V31.4a1.729,1.729,0,0,0,1.729,1.729H31.4A1.729,1.729,0,0,0,33.126,31.4V21.021A1.729,1.729,0,0,0,31.4,19.292Z" transform="translate(-2 4.207)" fill="#005df2" fill-rule="evenodd"/>
    <path id="Caminho_51040" data-name="Caminho 51040" d="M15.981-4.159H13.3a4.1,4.1,0,0,0-.576-1.513,4.233,4.233,0,0,0-1.032-1.109,4.454,4.454,0,0,0-1.363-.688A5.379,5.379,0,0,0,8.734-7.7a4.95,4.95,0,0,0-2.721.765A5.179,5.179,0,0,0,4.122-4.692,8.48,8.48,0,0,0,3.43-1.081a8.526,8.526,0,0,0,.692,3.628,5.111,5.111,0,0,0,1.9,2.235,4.983,4.983,0,0,0,2.708.757,5.443,5.443,0,0,0,1.586-.228,4.489,4.489,0,0,0,1.363-.675,4.2,4.2,0,0,0,1.036-1.1A4.12,4.12,0,0,0,13.3,2.048l2.682.009a7.194,7.194,0,0,1-.83,2.386,6.61,6.61,0,0,1-1.573,1.874A7.121,7.121,0,0,1,11.39,7.533a8.076,8.076,0,0,1-2.682.43A7.685,7.685,0,0,1,4.633,6.875,7.522,7.522,0,0,1,1.818,3.759,10.6,10.6,0,0,1,.79-1.081,10.556,10.556,0,0,1,1.822-5.926a7.557,7.557,0,0,1,2.82-3.112,7.669,7.669,0,0,1,4.066-1.088,8.336,8.336,0,0,1,2.618.4,7.024,7.024,0,0,1,2.188,1.169,6.507,6.507,0,0,1,1.608,1.874A7.279,7.279,0,0,1,15.981-4.159ZM22.8,8.014a5.35,5.35,0,0,1-2.27-.469,3.765,3.765,0,0,1-1.6-1.363,3.9,3.9,0,0,1-.589-2.192,3.553,3.553,0,0,1,.43-1.84,3.172,3.172,0,0,1,1.161-1.143A6.061,6.061,0,0,1,21.561.372,16.239,16.239,0,0,1,23.4.045q1.186-.138,1.926-.228A2.788,2.788,0,0,0,26.4-.48a.727.727,0,0,0,.335-.671v-.06A2.332,2.332,0,0,0,26.1-2.955a2.582,2.582,0,0,0-1.878-.619A3.274,3.274,0,0,0,22.184-3a3.1,3.1,0,0,0-1.027,1.268l-2.416-.55A4.66,4.66,0,0,1,20-4.232a5.129,5.129,0,0,1,1.913-1.083,7.571,7.571,0,0,1,2.278-.34,8.278,8.278,0,0,1,1.681.185A5.023,5.023,0,0,1,27.54-4.8a3.731,3.731,0,0,1,1.277,1.4,4.859,4.859,0,0,1,.5,2.351V7.722H26.8V5.917h-.1a3.658,3.658,0,0,1-.748.98,3.974,3.974,0,0,1-1.281.8A4.969,4.969,0,0,1,22.8,8.014Zm.559-2.063a3.718,3.718,0,0,0,1.827-.421,2.978,2.978,0,0,0,1.161-1.1,2.855,2.855,0,0,0,.4-1.466v-1.7a1.3,1.3,0,0,1-.529.254,7.29,7.29,0,0,1-.89.2q-.5.082-.971.146l-.791.107A6.292,6.292,0,0,0,22.2,2.28a2.33,2.33,0,0,0-.98.64,1.616,1.616,0,0,0-.365,1.1,1.635,1.635,0,0,0,.7,1.44A3.1,3.1,0,0,0,23.357,5.951Zm9.379,1.771v-13.2h2.484v2.1h.138a3.206,3.206,0,0,1,1.277-1.681,3.639,3.639,0,0,1,2.076-.615q.241,0,.572.017t.52.043v2.459a4.994,4.994,0,0,0-.55-.1,5.646,5.646,0,0,0-.791-.056,3.359,3.359,0,0,0-1.621.383A2.908,2.908,0,0,0,35.72-1.877a2.882,2.882,0,0,0-.413,1.535V7.722Zm16.239-13.2V-3.42H41.763V-5.483ZM43.7-8.647h2.57V3.845a2.232,2.232,0,0,0,.224,1.122,1.136,1.136,0,0,0,.58.507,2.207,2.207,0,0,0,.778.133,3.006,3.006,0,0,0,.542-.043l.361-.069.464,2.123a4.616,4.616,0,0,1-.636.176,5.283,5.283,0,0,1-1.032.1,4.526,4.526,0,0,1-1.891-.361,3.244,3.244,0,0,1-1.418-1.169A3.436,3.436,0,0,1,43.7,4.378ZM57.367,7.988a6.436,6.436,0,0,1-3.357-.838,5.586,5.586,0,0,1-2.166-2.364,7.933,7.933,0,0,1-.761-3.581,8.008,8.008,0,0,1,.761-3.576,5.835,5.835,0,0,1,2.132-2.416,5.873,5.873,0,0,1,3.211-.868,6.47,6.47,0,0,1,2.166.37,5.247,5.247,0,0,1,1.883,1.161,5.457,5.457,0,0,1,1.315,2.05A8.584,8.584,0,0,1,63.032.982v.911h-10.5V-.033h7.978a3.819,3.819,0,0,0-.413-1.8,3.137,3.137,0,0,0-1.156-1.242A3.265,3.265,0,0,0,57.2-3.531,3.355,3.355,0,0,0,55.316-3a3.573,3.573,0,0,0-1.238,1.375A3.964,3.964,0,0,0,53.644.208v1.5a4.956,4.956,0,0,0,.469,2.252,3.3,3.3,0,0,0,1.311,1.414,3.872,3.872,0,0,0,1.969.486,4.012,4.012,0,0,0,1.333-.211,2.83,2.83,0,0,0,1.04-.632,2.763,2.763,0,0,0,.671-1.04l2.433.438A4.4,4.4,0,0,1,61.824,6.3a5.06,5.06,0,0,1-1.883,1.247A7.019,7.019,0,0,1,57.367,7.988Zm8.528-.267v-13.2h2.57v13.2Zm1.3-15.242a1.611,1.611,0,0,1-1.148-.451,1.434,1.434,0,0,1-.477-1.079,1.443,1.443,0,0,1,.477-1.088,1.611,1.611,0,0,1,1.148-.451,1.611,1.611,0,0,1,1.148.451,1.443,1.443,0,0,1,.477,1.088,1.434,1.434,0,0,1-.477,1.079A1.611,1.611,0,0,1,67.193-7.52ZM71.921,7.722v-13.2h2.484v2.1h.138A3.206,3.206,0,0,1,75.82-5.066,3.639,3.639,0,0,1,77.9-5.681q.241,0,.572.017t.52.043v2.459a4.994,4.994,0,0,0-.55-.1,5.646,5.646,0,0,0-.791-.056,3.359,3.359,0,0,0-1.621.383A2.908,2.908,0,0,0,74.9-1.877a2.882,2.882,0,0,0-.413,1.535V7.722Zm13.024.292a5.35,5.35,0,0,1-2.27-.469,3.765,3.765,0,0,1-1.6-1.363,3.9,3.9,0,0,1-.589-2.192,3.553,3.553,0,0,1,.43-1.84,3.172,3.172,0,0,1,1.161-1.143A6.061,6.061,0,0,1,83.707.372a16.239,16.239,0,0,1,1.84-.327q1.186-.138,1.926-.228a2.788,2.788,0,0,0,1.075-.3.727.727,0,0,0,.335-.671v-.06a2.332,2.332,0,0,0-.632-1.745,2.582,2.582,0,0,0-1.878-.619A3.274,3.274,0,0,0,84.331-3,3.1,3.1,0,0,0,83.3-1.735l-2.416-.55a4.66,4.66,0,0,1,1.259-1.947A5.129,5.129,0,0,1,84.06-5.315a7.571,7.571,0,0,1,2.278-.34,8.278,8.278,0,0,1,1.681.185,5.023,5.023,0,0,1,1.668.675,3.73,3.73,0,0,1,1.277,1.4,4.859,4.859,0,0,1,.5,2.351V7.722h-2.51V5.917h-.1a3.658,3.658,0,0,1-.748.98,3.974,3.974,0,0,1-1.281.8A4.969,4.969,0,0,1,84.945,8.014ZM85.5,5.951a3.718,3.718,0,0,0,1.827-.421,2.978,2.978,0,0,0,1.161-1.1,2.855,2.855,0,0,0,.4-1.466v-1.7a1.3,1.3,0,0,1-.529.254,7.289,7.289,0,0,1-.89.2q-.5.082-.971.146l-.791.107a6.292,6.292,0,0,0-1.363.318,2.33,2.33,0,0,0-.98.64A1.616,1.616,0,0,0,83,4.025a1.635,1.635,0,0,0,.7,1.44A3.1,3.1,0,0,0,85.5,5.951Z" transform="translate(48.994 10.589)" fill="#005df2" stroke="rgba(0,0,0,0)" stroke-width="1"/>
    <path id="Caminho_51041" data-name="Caminho 51041" d="M5.171,7.722.288-9.885H3.082L6.512,3.75h.163L10.244-9.885h2.768L16.579,3.759h.163L20.164-9.885h2.8L18.075,7.722H15.4L11.7-5.466h-.138L7.854,7.722ZM27.764-.118v7.84h-2.57V-9.885H27.73v6.551h.163a3.8,3.8,0,0,1,1.418-1.694A4.465,4.465,0,0,1,31.8-5.655a4.865,4.865,0,0,1,2.377.559,3.817,3.817,0,0,1,1.582,1.663,6.032,6.032,0,0,1,.563,2.755v8.4h-2.57V-.368a3.187,3.187,0,0,0-.748-2.257,2.7,2.7,0,0,0-2.08-.8,3.379,3.379,0,0,0-1.629.387,2.761,2.761,0,0,0-1.126,1.13A3.674,3.674,0,0,0,27.764-.118Zm12,7.84v-13.2h2.57v13.2Zm1.3-15.242a1.611,1.611,0,0,1-1.148-.451,1.434,1.434,0,0,1-.477-1.079,1.443,1.443,0,0,1,.477-1.088,1.611,1.611,0,0,1,1.148-.451,1.611,1.611,0,0,1,1.148.451,1.443,1.443,0,0,1,.477,1.088,1.434,1.434,0,0,1-.477,1.079A1.611,1.611,0,0,1,41.063-7.52ZM51.956-5.483V-3.42H44.743V-5.483ZM46.677-8.647h2.57V3.845a2.232,2.232,0,0,0,.224,1.122,1.136,1.136,0,0,0,.58.507,2.207,2.207,0,0,0,.778.133,3.006,3.006,0,0,0,.542-.043l.361-.069L52.2,7.619a4.616,4.616,0,0,1-.636.176,5.283,5.283,0,0,1-1.032.1,4.526,4.526,0,0,1-1.891-.361,3.244,3.244,0,0,1-1.418-1.169,3.436,3.436,0,0,1-.542-1.986ZM60.346,7.988a6.436,6.436,0,0,1-3.357-.838,5.586,5.586,0,0,1-2.166-2.364,7.933,7.933,0,0,1-.761-3.581,8.008,8.008,0,0,1,.761-3.576,5.834,5.834,0,0,1,2.132-2.416,5.873,5.873,0,0,1,3.211-.868,6.47,6.47,0,0,1,2.166.37,5.247,5.247,0,0,1,1.883,1.161,5.457,5.457,0,0,1,1.315,2.05A8.583,8.583,0,0,1,66.011.982v.911h-10.5V-.033h7.978a3.819,3.819,0,0,0-.413-1.8,3.137,3.137,0,0,0-1.156-1.242,3.265,3.265,0,0,0-1.741-.456A3.355,3.355,0,0,0,58.3-3a3.573,3.573,0,0,0-1.238,1.375A3.965,3.965,0,0,0,56.624.208v1.5a4.956,4.956,0,0,0,.469,2.252A3.3,3.3,0,0,0,58.4,5.379a3.872,3.872,0,0,0,1.969.486A4.012,4.012,0,0,0,61.7,5.654a2.83,2.83,0,0,0,1.04-.632,2.764,2.764,0,0,0,.671-1.04l2.433.438A4.4,4.4,0,0,1,64.8,6.3a5.06,5.06,0,0,1-1.883,1.247A7.019,7.019,0,0,1,60.346,7.988Zm11.1-17.873V7.722h-2.57V-9.885Zm7.3,17.9a5.35,5.35,0,0,1-2.27-.469,3.765,3.765,0,0,1-1.6-1.363,3.9,3.9,0,0,1-.589-2.192,3.553,3.553,0,0,1,.43-1.84,3.172,3.172,0,0,1,1.161-1.143A6.061,6.061,0,0,1,77.505.372a16.238,16.238,0,0,1,1.84-.327q1.186-.138,1.926-.228a2.788,2.788,0,0,0,1.075-.3.727.727,0,0,0,.335-.671v-.06a2.332,2.332,0,0,0-.632-1.745,2.582,2.582,0,0,0-1.878-.619A3.274,3.274,0,0,0,78.129-3,3.1,3.1,0,0,0,77.1-1.735l-2.416-.55a4.66,4.66,0,0,1,1.259-1.947,5.129,5.129,0,0,1,1.913-1.083,7.572,7.572,0,0,1,2.278-.34,8.278,8.278,0,0,1,1.681.185,5.023,5.023,0,0,1,1.668.675,3.73,3.73,0,0,1,1.277,1.4,4.859,4.859,0,0,1,.5,2.351V7.722H82.75V5.917h-.1a3.657,3.657,0,0,1-.748.98,3.974,3.974,0,0,1-1.281.8A4.969,4.969,0,0,1,78.743,8.014ZM79.3,5.951a3.718,3.718,0,0,0,1.827-.421,2.978,2.978,0,0,0,1.161-1.1,2.855,2.855,0,0,0,.4-1.466v-1.7a1.3,1.3,0,0,1-.529.254,7.289,7.289,0,0,1-.89.2q-.5.082-.971.146l-.791.107a6.292,6.292,0,0,0-1.363.318,2.33,2.33,0,0,0-.98.64,1.616,1.616,0,0,0-.365,1.1,1.635,1.635,0,0,0,.7,1.44A3.1,3.1,0,0,0,79.3,5.951Zm9.586,1.771V-9.885h2.57v6.542h.155a7.182,7.182,0,0,1,.645-.954,3.694,3.694,0,0,1,1.169-.95A4.124,4.124,0,0,1,95.4-5.655a5.157,5.157,0,0,1,2.854.808,5.453,5.453,0,0,1,1.973,2.33,8.527,8.527,0,0,1,.718,3.662,8.6,8.6,0,0,1-.714,3.667,5.532,5.532,0,0,1-1.96,2.347,5.056,5.056,0,0,1-2.846.821,4.176,4.176,0,0,1-1.964-.4,3.714,3.714,0,0,1-1.191-.946,7.157,7.157,0,0,1-.662-.963H91.4V7.722Zm2.519-6.6a6.77,6.77,0,0,0,.4,2.442A3.672,3.672,0,0,0,92.98,5.2a3.3,3.3,0,0,0,3.8-.026A3.788,3.788,0,0,0,97.953,3.5a6.694,6.694,0,0,0,.4-2.381,6.631,6.631,0,0,0-.391-2.347,3.635,3.635,0,0,0-1.169-1.642,3.074,3.074,0,0,0-1.939-.6,3.059,3.059,0,0,0-1.887.576A3.523,3.523,0,0,0,91.8-1.288,6.706,6.706,0,0,0,91.407,1.119ZM109.52,7.988a6.436,6.436,0,0,1-3.357-.838A5.586,5.586,0,0,1,104,4.786a7.933,7.933,0,0,1-.761-3.581A8.008,8.008,0,0,1,104-2.371a5.835,5.835,0,0,1,2.132-2.416,5.873,5.873,0,0,1,3.211-.868,6.47,6.47,0,0,1,2.166.37,5.247,5.247,0,0,1,1.883,1.161,5.457,5.457,0,0,1,1.315,2.05,8.584,8.584,0,0,1,.481,3.056v.911h-10.5V-.033h7.978a3.819,3.819,0,0,0-.413-1.8A3.137,3.137,0,0,0,111.1-3.076a3.265,3.265,0,0,0-1.741-.456A3.355,3.355,0,0,0,107.47-3a3.573,3.573,0,0,0-1.238,1.375A3.964,3.964,0,0,0,105.8.208v1.5a4.956,4.956,0,0,0,.469,2.252,3.3,3.3,0,0,0,1.311,1.414,3.872,3.872,0,0,0,1.969.486,4.012,4.012,0,0,0,1.333-.211,2.83,2.83,0,0,0,1.04-.632,2.764,2.764,0,0,0,.671-1.04l2.433.438A4.4,4.4,0,0,1,113.978,6.3,5.06,5.06,0,0,1,112.1,7.546,7.019,7.019,0,0,1,109.52,7.988Zm11.1-17.873V7.722h-2.57V-9.885Z" transform="translate(48.628 39.986)" fill="#005df2" stroke="rgba(0,0,0,0)" stroke-width="1"/>
  </g>
</svg>
