<svg xmlns="http://www.w3.org/2000/svg" width="332.414" height="316.427" viewBox="0 0 332.414 316.427">
  <g id="Grupo_92" data-name="Grupo 92" transform="translate(-1401.16 -482.414)">
    <g id="Grupo_90" data-name="Grupo 90">
      <path id="Subtração_4" data-name="Subtração 4" d="M46.686,182.7a39.513,39.513,0,0,1-7.894-.79c-18.489-3.777-22.34-4.871-22.315-5.123,0-.044.129-.067.371-.067.753,0,2.406.218,2.422.22.015-.041.23-8.772.718-29.2a47.5,47.5,0,0,0,13.917,10.6A36.376,36.376,0,0,0,50,162.15a37.028,37.028,0,0,0,19.462-5.658,48.221,48.221,0,0,0,8.493-6.638,60.089,60.089,0,0,0,7.4-8.792,73.312,73.312,0,0,0,6.105-10.656,85.829,85.829,0,0,0,4.61-12.23,101.913,101.913,0,0,0,0-56.051,85.829,85.829,0,0,0-4.61-12.23,73.311,73.311,0,0,0-6.105-10.656,60.088,60.088,0,0,0-7.4-8.792,48.221,48.221,0,0,0-8.493-6.638A37.029,37.029,0,0,0,50,18.15c-9.7,0-19.1,4-27.2,11.571C23.292,9.587,23.533.143,23.56,0L36,3.15A73.465,73.465,0,0,1,64.419,8.683,68.141,68.141,0,0,1,88.239,25.3a80.3,80.3,0,0,1,16.538,27.736c4.137,11.48,6.349,24.561,6.572,38.881a120.99,120.99,0,0,1-1.705,22.453,106.8,106.8,0,0,1-5.4,19.82,94.442,94.442,0,0,1-8.411,16.87,81.828,81.828,0,0,1-10.741,13.6,64.689,64.689,0,0,1-18.509,13.359A46.7,46.7,0,0,1,46.686,182.7Z" transform="matrix(0.966, -0.259, 0.259, 0.966, 1578.717, 536.139)" fill="#e5ecf8"/>
      <path id="União_57" data-name="União 57" d="M3756.919,1376.014c-.9-8.291-8.957-42.866-21.709-63.5-7.4-11.973-19.13-20.668-27.673-25.856a69.734,69.734,0,0,1,7.819,4.235,80.3,80.3,0,0,1,23.153,22.511c6.967,10.018,12.489,22.081,16.411,35.855a121.044,121.044,0,0,1,4.164,22.128,106.763,106.763,0,0,1-.085,20.542,96.257,96.257,0,0,1-2.241,13.014C3757.122,1394.414,3757.445,1380.833,3756.919,1376.014Zm-103.765-68.626q-1.163-4.807-2.086-8.624c4.991-3.112,19.62-11.3,33.735-10.228,10.8.821,17.172,5.358,20.445,8.672a46.941,46.941,0,0,0-7.417-2.9,37.021,37.021,0,0,0-20.264-.427c-8.987,2.408-16.76,8.3-22.552,17.089Z" transform="translate(-2045.856 -753.15)" fill="#fff"/>
      <path id="União_58" data-name="União 58" d="M3690.77,1439.473s19.754,9.785,38.681,1.632c12.729-5.484,26.715-18.329,34.51-26.153q-1,2.447-2.16,4.8a73.076,73.076,0,0,1-6.58,10.9,63.671,63.671,0,0,1-8.15,9.174,52.963,52.963,0,0,1-9.466,7,44.107,44.107,0,0,1-10.535,4.393,39.951,39.951,0,0,1-7.931,1.294c-10.5.634-20.183,1.121-28.532,1.493Zm61.316-34.2a84.361,84.361,0,0,0,2.461-22.185,100.63,100.63,0,0,0-3.471-24.3,99.352,99.352,0,0,0-11.049-26.054,85.748,85.748,0,0,0-7.617-10.62,73.269,73.269,0,0,0-8.656-8.712,60.016,60.016,0,0,0-9.423-6.578,48.189,48.189,0,0,0-9.922-4.214,36.2,36.2,0,0,0-36.325,8.8,50.576,50.576,0,0,0-11.14,16.523,66.494,66.494,0,0,1,4.6-12.72,52.049,52.049,0,0,1,6.762-10.566,41.082,41.082,0,0,1,8.747-7.922,35.764,35.764,0,0,1,10.554-4.786,37.036,37.036,0,0,1,20.264.428,48.251,48.251,0,0,1,9.921,4.214,60.076,60.076,0,0,1,9.424,6.577,73.181,73.181,0,0,1,8.655,8.712,85.719,85.719,0,0,1,7.618,10.62,99.4,99.4,0,0,1,11.049,26.054,103.158,103.158,0,0,1,2.914,15.494,94.816,94.816,0,0,1,.459,14.9,83.17,83.17,0,0,1-1.842,13.891,69.221,69.221,0,0,1-3.986,12.44Z" transform="translate(-2055.899 -751.211)" fill="#dedede"/>
    </g>
    <g id="Grupo_91" data-name="Grupo 91">
      <path id="União_31" data-name="União 31" d="M0,248.993V24.58H.014C.914,10.967,45.334,0,100,0s99.086,10.967,99.986,24.58H200V248.993Z" transform="matrix(0.966, -0.259, 0.259, 0.966, 1401.16, 534.178)" fill="#eb3340"/>
      <path id="Interseção_12" data-name="Interseção 12" d="M13,260.771V94.437c14.522-6.388,39.977-11.02,70-12.306v178.64a35,35,0,1,1-70,0Z" transform="matrix(0.966, -0.259, 0.259, 0.966, 1379.996, 455.193)" fill="rgba(255,255,255,0.17)"/>
      <path id="Interseção_11" data-name="Interseção 11" d="M153,200.5V19.729a18.414,18.414,0,0,1,2.656-9.556C170.3,12.322,182.2,15.3,189.976,18.789q.023.467.023.94V200.5a18.5,18.5,0,0,1-37,0Z" transform="matrix(0.966, -0.259, 0.259, 0.966, 1399.607, 528.382)" fill="rgba(0,0,0,0.09)"/>
      <path id="Interseção_9" data-name="Interseção 9" d="M190.026,249.993V14.1c6.159,3.188,9.712,6.754,9.96,10.52H200V249.993Z" transform="matrix(0.966, -0.259, 0.259, 0.966, 1400.901, 533.212)" fill="#f55560"/>
      <ellipse id="Elipse_56" data-name="Elipse 56" cx="100" cy="25" rx="100" ry="25" transform="matrix(0.966, -0.259, 0.259, 0.966, 1459.135, 750.545)" fill="#e5ecf8"/>
      <ellipse id="Elipse_63" data-name="Elipse 63" cx="92" cy="23" rx="92" ry="23" transform="matrix(0.966, -0.259, 0.259, 0.966, 1467.898, 752.338)" fill="#dedede"/>
    </g>
    <path id="União_36" data-name="União 36" d="M52.6,67.074c-1.508,0-2.435-.447-2.876-1.436v1.436H44.711c-2.182,0-3.055-.663-3.665-2.565l-1.353-4.07H30.621l-1.353,4.07c-.611,1.9-1.483,2.565-3.664,2.565H6.02c-2.226,0-3.185-.973-3.185-3.228V43.057a.878.878,0,0,0-.959-.973H0V35.449H7.459c2.225,0,3.184.974,3.184,3.229V59.467a.88.88,0,0,0,.96.973h4.1a.878.878,0,0,0,.958-.973V57.742H23.2l7.9-22.293h8.114l8.507,24.018c.262.751.481.972,1.177.972h.521V42.084H46.584V35.449H60.237c6.239,0,10.6,2.831,10.6,8.271a7.607,7.607,0,0,1-3.621,6.724v.088A7.089,7.089,0,0,1,72.1,57.654c0,6.9-5.671,9.42-11.866,9.42Zm4.623-7.608a.879.879,0,0,0,.96.973H60.98a3.019,3.019,0,0,0,3.1-3.317,2.918,2.918,0,0,0-3.055-3.229h-3.8Zm-23.379-10.7-1.57,5.263h5.758l-1.57-5.263c-.611-1.991-1.264-5.221-1.264-5.221h-.088S34.459,46.773,33.848,48.764ZM57.227,47.7h3.1a2.639,2.639,0,0,0,2.66-2.919,2.526,2.526,0,0,0-2.791-2.7H57.227ZM94.083,58.233l.644-.931a2.073,2.073,0,0,0,1.2.518c.252,0,.525-.1.525-.4,0-.595-2.254-.573-2.254-2.114a1.606,1.606,0,0,1,1.77-1.533,2.27,2.27,0,0,1,1.61.567l-.518,1a1.91,1.91,0,0,0-1.106-.441c-.252,0-.532.112-.532.392,0,.63,2.254.518,2.254,2.1a1.594,1.594,0,0,1-1.764,1.554A2.586,2.586,0,0,1,94.083,58.233Zm4.249.63V57.714h1.148v1.148Zm-5.7,0-.308-1.05H90.766l-.3,1.05H89.2l1.7-5.006h1.288l1.7,5.006Zm-1.3-3-.287.973h.987l-.28-.973c-.091-.315-.2-.861-.2-.861h-.013S91.43,55.544,91.339,55.859Zm-5.635,3V53.857h3.137v1.05H86.929v.91h1.526v1.05H86.929v.945h2.01v1.05Zm-5.222,0V53.857h1.778a2.5,2.5,0,1,1,0,5.006Zm1.225-1.05h.5a1.455,1.455,0,0,0,0-2.905h-.5Zm-3.626,1.05V53.857h1.225v5.006ZM94.426,48.021V44.857h1.225v3.164a.871.871,0,0,0,1.736,0V44.857h1.225v3.164a2.1,2.1,0,0,1-4.186,0Zm-9.093,1.211.644-.931a2.073,2.073,0,0,0,1.2.518c.252,0,.525-.1.525-.4,0-.595-2.255-.573-2.255-2.114a1.607,1.607,0,0,1,1.771-1.533,2.27,2.27,0,0,1,1.61.567l-.518,1A1.91,1.91,0,0,0,87.2,45.9c-.252,0-.532.112-.532.392,0,.63,2.254.518,2.254,2.1a1.594,1.594,0,0,1-1.764,1.554A2.583,2.583,0,0,1,85.334,49.233Zm30.268.63V44.857h3.136v1.05h-1.912v.91h1.526v1.05h-1.526v.945h2.009v1.05Zm-3.584,0-1.771-5.006h1.33l.882,2.849c.1.315.189.8.189.8h.013s.092-.49.189-.8l.9-2.849h1.309l-1.764,5.006Zm-3.542,0V44.857H109.7v5.006Zm-3.36,0V45.907H103.6v-1.05h4.263v1.05H106.34v3.956Zm-5.4,0V44.857H101.8a1.732,1.732,0,0,1,0,3.459h-.854v1.547Zm1.225-2.6h.6a.609.609,0,0,0,.637-.686.593.593,0,0,0-.616-.672h-.624Zm-8.491,2.6-.889-1.687h-.574v1.688H89.764V44.857h1.743a2.572,2.572,0,0,1,.973.12,1.455,1.455,0,0,1,.924,1.455,1.523,1.523,0,0,1-.749,1.365v.014a3.028,3.028,0,0,1,.189.3l.973,1.75Zm-1.463-2.738h.533a.572.572,0,0,0,.636-.616c0-.378-.14-.6-.756-.6h-.413ZM83.3,49.863V44.857h1.226v5.006Zm-5.222,0V44.857H79.86a2.5,2.5,0,1,1,0,5.006Zm1.225-1.05h.5a1.455,1.455,0,0,0,0-2.905h-.5Zm24.759-9.791V35.857h1.225v3.164a.871.871,0,0,0,1.736,0V35.857h1.225v3.164a2.1,2.1,0,0,1-4.186,0Zm-6-.693a2.619,2.619,0,0,1,5.236,0,2.618,2.618,0,1,1-5.236,0Zm1.267,0a1.358,1.358,0,1,0,2.7,0,1.353,1.353,0,1,0-2.7,0Zm-17.752,0a2.619,2.619,0,0,1,5.236,0,2.618,2.618,0,1,1-5.236,0Zm1.267,0a1.358,1.358,0,1,0,2.7,0,1.353,1.353,0,1,0-2.7,0Zm29.2,2.534-.889-1.687h-.574v1.688h-1.225V35.857H111.1a2.572,2.572,0,0,1,.973.12A1.455,1.455,0,0,1,113,37.432a1.523,1.523,0,0,1-.749,1.365v.014a3.03,3.03,0,0,1,.189.3l.973,1.75Zm-1.463-2.738h.533a.572.572,0,0,0,.636-.616c0-.378-.14-.6-.756-.6h-.413Zm-15.5,2.738V38.812l-1.651-2.955h1.393l.567,1.2c.161.343.3.721.3.721h.014s.14-.378.3-.721l.56-1.2h1.393L96.31,38.812v2.051Zm-4.746,0-.889-1.687h-.573v1.688H87.65V35.857h1.743a2.572,2.572,0,0,1,.973.12,1.455,1.455,0,0,1,.924,1.455,1.523,1.523,0,0,1-.749,1.365v.014a3.03,3.03,0,0,1,.189.3l.973,1.75Zm-1.463-2.738h.532a.572.572,0,0,0,.636-.616c0-.378-.14-.6-.756-.6h-.412ZM78.081,40.863V35.857h3.066v1.05H79.306v1.05h1.526v1.049H79.306v1.856ZM65.1,24.813c0-6.634,9.553-7.386,13.044-7.386h.305v-.4c0-1.9-1.44-2.521-3.316-2.521-2.836,0-6.063,2.166-6.063,2.166l-2.617-5.4a16.839,16.839,0,0,1,9.421-2.964C82.2,8.315,86,11.81,86,17.6V31.625H79.1V30.253a12.061,12.061,0,0,1,.088-1.415H79.1a6.98,6.98,0,0,1-6.368,3.317C68.546,32.156,65.1,29.326,65.1,24.813Zm7.59-.4c0,1.062.655,1.9,2.138,1.9,1.963,0,3.708-2.168,3.708-4.025v-.487h-.7C75.44,21.805,72.69,22.514,72.69,24.415Zm-46.975-.054v7.264H18.169V18.267c0-2.123-.829-3.008-2.487-3.008a4.542,4.542,0,0,0-4.493,3.361,8.927,8.927,0,0,0-.393,2.92V31.625H3.25V0H10.8V10c0,1.15-.087,1.946-.087,1.946H10.8a7.689,7.689,0,0,1,6.849-3.626c4.308,0,7.713,1.914,8.044,7.6,1.5-4.493,5.425-7.6,11.016-7.6,6.632,0,10.382,4.688,10.382,11.013,0,.752-.174,2.389-.174,2.389H32.737a5.027,5.027,0,0,0,5.234,4.068,11.692,11.692,0,0,0,6.195-2.3l2.553,4.9,5.035-8.035-7.241-11.5h8.507l2.444,5.087c.305.574.7,1.5.7,1.5h.088s.436-.93.7-1.5l2.444-5.087h8.506l-7.2,11.5,7.067,11.279H59.476l-2.7-5.131c-.219-.4-.524-1.15-.524-1.15h-.088s-.3.752-.523,1.15l-2.661,5.131H44.687l1.274-2.034a15.551,15.551,0,0,1-8.6,2.565C31.21,32.156,27.237,28.7,25.716,24.361Zm7.2-7.023H39.5a3.085,3.085,0,0,0-2.966-3.273C34.35,14.065,33.3,15.657,32.911,17.339Zm61.315,7.39-2.283-4.008,2.283-4.009h4.565l2.282,4.009-2.282,4.008Z" transform="matrix(0.966, -0.259, 0.259, 0.966, 1453.111, 588.97)" fill="#fff" stroke="rgba(0,0,0,0)" stroke-miterlimit="10" stroke-width="1"/>
  </g>
</svg>
