<svg id="IconDesign" xmlns="http://www.w3.org/2000/svg" width="48" height="48" viewBox="0 0 48 48">
  <rect id="Retângulo_5718" data-name="Retângulo 5718" width="48" height="48" fill="none" opacity="0"/>
  <path id="Caminho_57040" data-name="Caminho 57040" d="M5649.058,21926.2a1.092,1.092,0,0,1-1.089-1.09,5.532,5.532,0,0,1,1.585-3.885c.16-.154.319-.3.49-.441a13.789,13.789,0,0,0-3.935-8.051,1.091,1.091,0,0,1-.138-1.375l8.716-13.08h.006c0-.006.005-.006.005-.012a1.091,1.091,0,0,1,1.744-.064l.05.064.011.012,8.716,13.08a1.091,1.091,0,0,1-.137,1.375,13.815,13.815,0,0,0-3.935,8.051,6.474,6.474,0,0,1,.49.441,5.532,5.532,0,0,1,1.584,3.885,1.089,1.089,0,0,1-1.089,1.09Zm1.277-2.18h10.521a3.322,3.322,0,0,0-3.082-2.256h-4.358A3.327,3.327,0,0,0,5650.334,21924.016Zm7.44-4.436a5.375,5.375,0,0,1,1.326.17,15.99,15.99,0,0,1,3.824-7.912l-6.24-9.359v6.4a3.268,3.268,0,1,1-2.179,0v-6.4l-6.24,9.359a15.949,15.949,0,0,1,3.824,7.912,5.375,5.375,0,0,1,1.326-.17Zm-3.269-7.627a1.09,1.09,0,1,0,1.09-1.09A1.089,1.089,0,0,0,5654.505,21911.953Zm10.9-4.357a3.277,3.277,0,0,1,2.146-3.07,12.164,12.164,0,0,0-9.024-10.8,3.267,3.267,0,0,1-5.855,0,12.171,12.171,0,0,0-9.024,10.8,3.266,3.266,0,1,1-2.185-.023,14.334,14.334,0,0,1,6.609-11.158h-4.529v1.105a1.092,1.092,0,0,1-1.089,1.09h-4.358a1.089,1.089,0,0,1-1.089-1.09v-4.357a1.085,1.085,0,0,1,1.089-1.09h4.358a1.089,1.089,0,0,1,1.089,1.09v1.088h8.975a3.269,3.269,0,0,1,6.163,0h8.975v-1.088a1.089,1.089,0,0,1,1.089-1.09h4.358a1.085,1.085,0,0,1,1.09,1.09v4.357a1.089,1.089,0,0,1-1.09,1.09h-4.358a1.092,1.092,0,0,1-1.089-1.09v-1.09h-4.529a14.277,14.277,0,0,1,6.608,11.143,3.269,3.269,0,1,1-4.331,3.094Zm2.179,0a1.09,1.09,0,1,0,1.089-1.09A1.092,1.092,0,0,0,5667.58,21907.6Zm-26.149,0a1.09,1.09,0,1,0,1.089-1.09A1.092,1.092,0,0,0,5641.431,21907.6Zm28.4-14.236h2.179v-2.18h-2.179Zm-15.325-1.09a1.09,1.09,0,1,0,1.09-1.09A1.092,1.092,0,0,0,5654.505,21892.27Zm-15.325,1.09h2.179v-2.18h-2.179Z" transform="translate(-5631.595 -21883.602)" fill="#c9ced8"/>
</svg>
