<svg id="LogoGetzEntrega" xmlns="http://www.w3.org/2000/svg" width="240" height="120" viewBox="0 0 240 120">
  <rect id="Retângulo_1551" data-name="Retângulo 1551" width="240" height="120" fill="none" opacity="0.003"/>
  <g id="Grupo_14413" data-name="Grupo 14413" transform="translate(51.553 20)">
    <g id="Grupo_2235" data-name="Grupo 2235">
      <path id="Caminho_26424" data-name="Caminho 26424" d="M170.392,114.771h2.117c.094,0,.188.007.283.007a4.987,4.987,0,1,0-.027-9.975c-.149,0-.3.007-.441.021h-1.932V98.258c0-.076,0-.154,0-.231a4.988,4.988,0,0,0-9.975.026c0,.053,0,.107,0,.159h0v6.611h-2.168c-.09,0-.179-.007-.27-.007a4.987,4.987,0,1,0,.027,9.975c.151,0,.3-.007.449-.021h1.963V130.8q-.03.424-.028.855a10.677,10.677,0,0,0,.225,2.291,12,12,0,0,0,11.8,9.669c.207,0,.417-.006.629-.016v-.058a4.988,4.988,0,0,0,0-9.961v-.094c-.04,0-.081,0-.122,0a2.526,2.526,0,0,1-2.522-2.4h-.014V114.771Z" transform="translate(-75.297 -93.053)" fill="#1082ff" fill-rule="evenodd"/>
      <path id="Caminho_26425" data-name="Caminho 26425" d="M127.672,107.195a19.413,19.413,0,0,0,.1,38.826c4.752-.013,12.8-2.632,14.467-7.5,1.578-4.608-3.866-9.309-8.325-5.366l.013-.046a9.014,9.014,0,0,1-14.624-3.3H136.14l0,0,5.224.017C153.352,129.868,144.793,107.149,127.672,107.195Zm.028,10.371a9.012,9.012,0,0,1,8.014,4.84.191.191,0,0,1,.01.022h-16l.009-.02A9.011,9.011,0,0,1,127.7,117.565Z" transform="translate(-67.326 -95.574)" fill="#1082ff" fill-rule="evenodd"/>
      <path id="Caminho_26426" data-name="Caminho 26426" d="M213.519,135.854c-.46-.044-.926-.032-1.392-.032H201.242c4.76-6.19,9.471-12.411,14.342-18.513a20.46,20.46,0,0,0,1.835-2.576,4.988,4.988,0,0,0-4.4-7.371h-.012v-.028H190.663v.019a4.988,4.988,0,0,0,.067,9.975c.1,0,.2,0,.3-.01H202.61L188.931,135.09c-1.445,1.878-3.21,3.236-3.2,5.732A4.988,4.988,0,0,0,190.7,145.8v.009H213.05a4.988,4.988,0,0,0,.469-9.952Z" transform="translate(-81.13 -95.6)" fill="#1082ff" fill-rule="evenodd"/>
      <path id="Caminho_26427" data-name="Caminho 26427" d="M81.505,101.47a5.175,5.175,0,0,0-8.629,5.032A19.406,19.406,0,1,0,91.57,138.974l.026.012a19.406,19.406,0,0,0,.259-27.168Zm2.767,30.195a9.056,9.056,0,1,1,0-12.807A9.055,9.055,0,0,1,84.273,131.665Z" transform="translate(-58.433 -94.288)" fill="#1082ff" fill-rule="evenodd"/>
      <path id="Caminho_26428" data-name="Caminho 26428" d="M89.5,154.622a5.175,5.175,0,0,0-2.973,6.69A9.056,9.056,0,0,1,74.4,172.835a8.944,8.944,0,0,1-4.773-5.023,5.176,5.176,0,0,0-9.662,3.717,19.406,19.406,0,0,0,20.158,12.33,19.808,19.808,0,0,0,4.947-1.2,19.406,19.406,0,0,0,11.121-25.064A5.176,5.176,0,0,0,89.5,154.622Z" transform="translate(-58.644 -103.969)" fill="#1082ff" fill-rule="evenodd"/>
    </g>
    <path id="Caminho_50321" data-name="Caminho 50321" d="M4.672-14.432v2.644H8.936V-9.33H4.672v2.868H9.495v2.551H1.488V-16.982H9.495v2.551ZM23.255-3.911H20.071l-5.325-8.063v8.063H11.562V-16.982h3.184l5.325,8.1v-8.1h3.184ZM34.967-16.982v2.551H31.5v10.52H28.32v-10.52H24.856v-2.551ZM43.235-3.911,40.516-8.845h-.763v4.934H36.568V-16.982h5.344a5.883,5.883,0,0,1,2.635.54,3.72,3.72,0,0,1,1.629,1.48,4.131,4.131,0,0,1,.54,2.095,3.891,3.891,0,0,1-.736,2.328,3.959,3.959,0,0,1-2.169,1.452l3.016,5.176ZM39.753-11.1h1.974a1.807,1.807,0,0,0,1.313-.428,1.616,1.616,0,0,0,.438-1.21,1.566,1.566,0,0,0-.438-1.173,1.807,1.807,0,0,0-1.313-.428H39.753Zm12.14-3.333v2.644h4.264V-9.33H51.893v2.868h4.823v2.551H48.709V-16.982h8.007v2.551Zm15.566,1.583a2.381,2.381,0,0,0-1.015-1,3.32,3.32,0,0,0-1.555-.344,3.2,3.2,0,0,0-2.476,1.015,3.851,3.851,0,0,0-.931,2.709,3.9,3.9,0,0,0,.978,2.821A3.56,3.56,0,0,0,65.151-6.63a3.254,3.254,0,0,0,1.983-.6,3.377,3.377,0,0,0,1.182-1.713H64.275v-2.346H71.2v2.961A6.245,6.245,0,0,1,70-6.108,6.337,6.337,0,0,1,67.85-4.451a6.647,6.647,0,0,1-2.942.633,6.964,6.964,0,0,1-3.454-.847A6.035,6.035,0,0,1,59.09-7.021a6.912,6.912,0,0,1-.847-3.445,6.964,6.964,0,0,1,.847-3.454,6.035,6.035,0,0,1,2.355-2.365,6.912,6.912,0,0,1,3.445-.847A6.692,6.692,0,0,1,68.847-16a5.36,5.36,0,0,1,2.132,3.147ZM81.108-6.22H76.23l-.782,2.309H72.115l4.73-13.071h3.687L85.26-3.911H81.89Zm-.819-2.458-1.62-4.785-1.6,4.785Zm10.595-8.77-.372,8.919h-2.7l-.372-8.919ZM89.208-3.762a1.93,1.93,0,0,1-1.369-.493,1.6,1.6,0,0,1-.531-1.22,1.649,1.649,0,0,1,.531-1.248,1.909,1.909,0,0,1,1.369-.5,1.884,1.884,0,0,1,1.35.5,1.649,1.649,0,0,1,.531,1.248,1.6,1.6,0,0,1-.531,1.22A1.9,1.9,0,0,1,89.208-3.762Z" transform="translate(45.804 83.762)" fill="#1082ff"/>
  </g>
</svg>
