<svg xmlns="http://www.w3.org/2000/svg" width="195.685" height="48" viewBox="0 0 195.685 48">
  <g id="Grupo_19267" data-name="Grupo 19267" transform="translate(-54.772 -44)">
    <path id="text1055" d="M14.866,5.874a14.956,14.956,0,0,1-3.749-.454,12.6,12.6,0,0,1-2.9-1.079V15.36a7.1,7.1,0,0,1-.852.256,5.15,5.15,0,0,1-1.25.142q-2.443,0-2.443-2.1V-16.337a3.594,3.594,0,0,1,.4-1.818,4.562,4.562,0,0,1,1.647-1.42,21.721,21.721,0,0,1,3.664-1.562,15.332,15.332,0,0,1,4.857-.71,17.049,17.049,0,0,1,5.254.8,11.125,11.125,0,0,1,4.26,2.471,11.8,11.8,0,0,1,2.84,4.289,16.726,16.726,0,0,1,1.051,6.249,18.17,18.17,0,0,1-.937,6.135,11.747,11.747,0,0,1-2.641,4.346,10.733,10.733,0,0,1-4.062,2.585A15.019,15.019,0,0,1,14.866,5.874Zm-.625-3.749A8.639,8.639,0,0,0,20.631-.289Q23.045-2.7,23.045-8.043a13.734,13.734,0,0,0-.71-4.715A8.279,8.279,0,0,0,20.4-15.882a7.077,7.077,0,0,0-2.812-1.7,10.885,10.885,0,0,0-3.351-.511,10.289,10.289,0,0,0-3.465.511A17.853,17.853,0,0,0,8.219-16.45V.307a9.537,9.537,0,0,0,2.556,1.307A10.6,10.6,0,0,0,14.241,2.125ZM37.928-5.317q1.534,7.441,9.77,7.441a11.241,11.241,0,0,0,4.317-.8,12.636,12.636,0,0,0,3.067-1.7,2.416,2.416,0,0,1,1.363,2.159,2.21,2.21,0,0,1-.71,1.534,6.38,6.38,0,0,1-1.931,1.307,13.178,13.178,0,0,1-2.84.909,16.951,16.951,0,0,1-3.493.341q-6.589,0-10.424-3.579T33.213-8.157a16.513,16.513,0,0,1,.937-5.766,12.368,12.368,0,0,1,2.613-4.289,11.254,11.254,0,0,1,4-2.7,13.416,13.416,0,0,1,5.056-.937,12.73,12.73,0,0,1,4.715.852A10.8,10.8,0,0,1,54.26-18.58,11.221,11.221,0,0,1,56.7-14.888a12.153,12.153,0,0,1,.88,4.686,2.386,2.386,0,0,1-.568,1.789,2.665,2.665,0,0,1-1.591.653Zm7.839-12.838A7.542,7.542,0,0,0,40.03-15.74q-2.272,2.414-2.386,6.9L53.266-11a8.345,8.345,0,0,0-2.187-5.141A6.95,6.95,0,0,0,45.767-18.154ZM86.61.818a2.823,2.823,0,0,1-.483,1.761,5.534,5.534,0,0,1-1.505,1.25,13.372,13.372,0,0,1-3.238,1.392,16.279,16.279,0,0,1-4.828.653,18.861,18.861,0,0,1-5.624-.8,11.561,11.561,0,0,1-4.4-2.471,10.95,10.95,0,0,1-2.84-4.26,17.35,17.35,0,0,1-.994-6.22,17.555,17.555,0,0,1,1.022-6.334,12.136,12.136,0,0,1,2.755-4.346,10.567,10.567,0,0,1,4.09-2.5,15.624,15.624,0,0,1,5.027-.8,13.61,13.61,0,0,1,3.522.454,13.356,13.356,0,0,1,2.954,1.136V-31.674a6.835,6.835,0,0,1,.88-.256,5.254,5.254,0,0,1,1.221-.142q2.443,0,2.443,2.045ZM82.066-16.166a12.126,12.126,0,0,0-2.613-1.363,9.455,9.455,0,0,0-3.408-.568,10.106,10.106,0,0,0-3.323.54A7.01,7.01,0,0,0,69.966-15.8a8.707,8.707,0,0,0-1.9,3.209,14.431,14.431,0,0,0-.71,4.828q0,5.226,2.5,7.555A9.358,9.358,0,0,0,76.5,2.125,10.512,10.512,0,0,0,79.765,1.7a11.169,11.169,0,0,0,2.3-1.051ZM100.073,5.022a7.1,7.1,0,0,1-.852.256,5.15,5.15,0,0,1-1.25.142q-2.443,0-2.443-2.045V-20.995a6.835,6.835,0,0,1,.88-.256,5.507,5.507,0,0,1,1.278-.142q2.386,0,2.386,2.1ZM94.847-29.4a2.742,2.742,0,0,1,.824-2.017,2.882,2.882,0,0,1,2.13-.824,2.788,2.788,0,0,1,2.1.824,2.793,2.793,0,0,1,.8,2.017,2.793,2.793,0,0,1-.8,2.017,2.788,2.788,0,0,1-2.1.824,2.882,2.882,0,0,1-2.13-.824A2.742,2.742,0,0,1,94.847-29.4ZM131.372.818a2.823,2.823,0,0,1-.483,1.761,5.534,5.534,0,0,1-1.505,1.25,13.373,13.373,0,0,1-3.238,1.392,16.279,16.279,0,0,1-4.828.653,18.861,18.861,0,0,1-5.624-.8,11.561,11.561,0,0,1-4.4-2.471,10.949,10.949,0,0,1-2.84-4.26,17.35,17.35,0,0,1-.994-6.22,17.555,17.555,0,0,1,1.022-6.334,12.136,12.136,0,0,1,2.755-4.346,10.567,10.567,0,0,1,4.09-2.5,15.624,15.624,0,0,1,5.027-.8,13.61,13.61,0,0,1,3.522.454,13.355,13.355,0,0,1,2.954,1.136V-31.674a6.835,6.835,0,0,1,.88-.256,5.254,5.254,0,0,1,1.221-.142q2.443,0,2.443,2.045Zm-4.544-16.985a12.126,12.126,0,0,0-2.613-1.363,9.455,9.455,0,0,0-3.408-.568,10.106,10.106,0,0,0-3.323.54,7.009,7.009,0,0,0-2.755,1.761,8.707,8.707,0,0,0-1.9,3.209,14.431,14.431,0,0,0-.71,4.828q0,5.226,2.5,7.555a9.358,9.358,0,0,0,6.646,2.329,10.512,10.512,0,0,0,3.266-.426,11.169,11.169,0,0,0,2.3-1.051Zm37.548,8.18a17.044,17.044,0,0,1-.909,5.737,12.581,12.581,0,0,1-2.585,4.374,11.114,11.114,0,0,1-4.062,2.783,14.117,14.117,0,0,1-5.34.966,14.117,14.117,0,0,1-5.34-.966,11.383,11.383,0,0,1-4.09-2.783,12.355,12.355,0,0,1-2.613-4.374,17.045,17.045,0,0,1-.909-5.737,16.575,16.575,0,0,1,.937-5.737,12.7,12.7,0,0,1,2.641-4.374,11.383,11.383,0,0,1,4.09-2.783,13.958,13.958,0,0,1,5.283-.966,13.958,13.958,0,0,1,5.283.966,11.114,11.114,0,0,1,4.062,2.783,12.936,12.936,0,0,1,2.613,4.374A16.575,16.575,0,0,1,164.376-7.986ZM151.481-18.1a7.474,7.474,0,0,0-6.078,2.67q-2.215,2.67-2.215,7.441,0,4.828,2.187,7.47a7.49,7.49,0,0,0,6.107,2.641,7.374,7.374,0,0,0,6.078-2.67q2.159-2.67,2.159-7.441t-2.187-7.441A7.392,7.392,0,0,0,151.481-18.1Z" transform="translate(86.081 76.242)" fill="#272f3f"/>
    <path id="text1059" d="M11.005-6.087a4.935,4.935,0,0,0,2.67,2.869,10.343,10.343,0,0,0,4.2.824,16.989,16.989,0,0,0,4.544-.6,13.823,13.823,0,0,0,3.465-1.392,4.756,4.756,0,0,1,1.534,1.591,4.075,4.075,0,0,1,.625,2.159,3.86,3.86,0,0,1-.8,2.443,6.021,6.021,0,0,1-2.244,1.7,12.7,12.7,0,0,1-3.437.994,28.272,28.272,0,0,1-4.374.312,19.919,19.919,0,0,1-6.22-.937A13.808,13.808,0,0,1,6.007,1.07,12.9,12.9,0,0,1,2.712-3.645a17.071,17.071,0,0,1-1.193-6.646A15.545,15.545,0,0,1,2.74-16.738a12.567,12.567,0,0,1,3.238-4.431,13.119,13.119,0,0,1,4.573-2.556,16.939,16.939,0,0,1,5.226-.824,15.779,15.779,0,0,1,5.482.909,13.186,13.186,0,0,1,4.26,2.5,10.808,10.808,0,0,1,2.755,3.806,11.952,11.952,0,0,1,.966,4.828A3.876,3.876,0,0,1,28.16-9.553,5.4,5.4,0,0,1,25.15-8.246Zm4.828-11.418A5.185,5.185,0,0,0,12.227-16.2a5.67,5.67,0,0,0-1.733,3.692L20.151-14.1a3.525,3.525,0,0,0-.341-1.164,4,4,0,0,0-.8-1.108,3.764,3.764,0,0,0-1.307-.824A5.115,5.115,0,0,0,15.834-17.505Z" transform="translate(53.253 77.903)" fill="#f9b61b"/>
  </g>
</svg>
