<svg xmlns="http://www.w3.org/2000/svg" xmlns:xlink="http://www.w3.org/1999/xlink" width="131.316" height="88" viewBox="0 0 131.316 88">
  <defs>
    <linearGradient id="linear-gradient" y1="0.5" x2="1" y2="0.5" gradientUnits="objectBoundingBox">
      <stop offset="0" stop-color="#ed474e"/>
      <stop offset="1" stop-color="#ff7c41"/>
    </linearGradient>
  </defs>
  <path id="Caminho_7" data-name="Caminho 7" d="M3513.828,1121.675c-.034-.126-.063-.256-.1-.381l-.009,0a28.723,28.723,0,0,0-2.388-6.192c-6.811-11.7-19.635-17.16-32.362-13.782a27.034,27.034,0,0,0-14.008,8.624c-3.119,3.543-4.235,4.222-6.855,4.142-1.663-.048-3.249-.841-6.64-3.319a43.07,43.07,0,0,0-27.746-8.441,54.131,54.131,0,0,0-9.674,1.906,37.781,37.781,0,0,0-5.207,1.757,40.95,40.95,0,0,0-10.589,6.923,39.63,39.63,0,0,0-9.2,11.549,42.809,42.809,0,0,0-3.966,31.321l-.008,0c.028.1.059.2.087.307.057.216.1.433.163.646l.015,0a42.806,42.806,0,0,0,19.146,25.3,39.635,39.635,0,0,0,13.746,5.4,40.97,40.97,0,0,0,12.63.7,59.863,59.863,0,0,0,14.717-4.272,43.065,43.065,0,0,0,19.8-21.188c1.7-3.845,2.672-5.325,4.089-6.2,2.229-1.377,3.536-1.35,8.008.157a27.036,27.036,0,0,0,16.442.459c12.71-3.442,21.084-14.583,21.128-28.122a29.179,29.179,0,0,0-1.074-6.721l.012,0C3513.938,1122.051,3513.879,1121.865,3513.828,1121.675ZM3503.2,1142.26c-3.034,3.948-6.312,6.054-11.575,7.426a15.873,15.873,0,0,1-6.158.8,20.479,20.479,0,0,1-9.646-2.922,11.581,11.581,0,0,0-15.323,5.784q-.171.381-.316.773c-3.353,13.253-14.347,23.926-28.143,26.033a34.374,34.374,0,0,1-22.838-4.277,34.765,34.765,0,0,1-13.488-13.672,44.37,44.37,0,0,1-4.339-16.188,34.745,34.745,0,0,1,4.839-18.583,34.376,34.376,0,0,1,17.635-15.128,32.529,32.529,0,0,1,3.7-1.2,35.158,35.158,0,0,1,33.691,9.658,11.58,11.58,0,0,0,16.308-1.491q.268-.321.511-.661a20.475,20.475,0,0,1,6.891-7.353,15.869,15.869,0,0,1,5.736-2.387c5.243-1.442,9.137-1.26,13.737.642a21.417,21.417,0,0,1,8.777,32.738ZM3468.576,1134a5.007,5.007,0,1,1-6.133-3.539,5.007,5.007,0,0,1,6.133,3.539Zm-46.374,12.387a6.78,6.78,0,0,0,1.454-3.1,8.166,8.166,0,0,0-.213-3.582,8.528,8.528,0,0,0-2.385-4.027,8.954,8.954,0,0,0-4.744-2.2,17.434,17.434,0,0,0-7.385.65,17.611,17.611,0,0,0-6.719,3.132,8.444,8.444,0,0,0-3.077,9.06,7.639,7.639,0,0,0,1.64,3.153,6.946,6.946,0,0,0,2.8,1.91,8.74,8.74,0,0,0-2.087,3.522,7.628,7.628,0,0,0-.042,4.373,9.566,9.566,0,0,0,1.72,3.458,8.693,8.693,0,0,0,3.186,2.482,12.262,12.262,0,0,0,4.719,1.068,20.711,20.711,0,0,0,6.265-.817,18.961,18.961,0,0,0,7.292-3.425,10.213,10.213,0,0,0,3.4-4.735,8.957,8.957,0,0,0,.126-5.1,8.188,8.188,0,0,0-2.224-3.859,7.267,7.267,0,0,0-3.72-1.966Zm-14.25-3.551a2.99,2.99,0,0,1,.965-1.354,4.543,4.543,0,0,1,1.75-.866,4.663,4.663,0,0,1,1.994-.138,3.184,3.184,0,0,1,1.536.684,2.687,2.687,0,0,1,.866,1.4,2.605,2.605,0,0,1-.061,1.6,3.158,3.158,0,0,1-.988,1.362,5.175,5.175,0,0,1-1.784.922,4.323,4.323,0,0,1-1.955.1,3.142,3.142,0,0,1-1.519-.712,2.7,2.7,0,0,1-.835-1.363,2.781,2.781,0,0,1,.03-1.642Zm10.727,13.734a3.409,3.409,0,0,1-1.131,1.516,5.35,5.35,0,0,1-1.942.941,5.217,5.217,0,0,1-2.108.145,3.421,3.421,0,0,1-1.74-.747,3.049,3.049,0,0,1-.989-1.6,3.112,3.112,0,0,1,.045-1.924,3.407,3.407,0,0,1,1.131-1.517,5.2,5.2,0,0,1,1.9-.928,5.324,5.324,0,0,1,2.152-.157,3.414,3.414,0,0,1,1.739.747,3.131,3.131,0,0,1,1,1.645,3.045,3.045,0,0,1-.056,1.88Zm30.24-32.345a1.176,1.176,0,0,1,.52.723l1.284,4.788a4.275,4.275,0,0,1,.169,1.238,6.368,6.368,0,0,1-.12,1.035l-4.008,24.03c-.076.176-.2.428-.382.756a1.567,1.567,0,0,1-1.048.7l-6.964,1.867a1,1,0,0,1-1.214-.7.885.885,0,0,1-.019-.415l4.019-23.986-12.533,3.36a1.155,1.155,0,0,1-1.426-.794l-.009-.034-1.471-5.485a1.156,1.156,0,0,1,.8-1.427l.033-.008,21.458-5.754A1.115,1.115,0,0,1,3448.919,1124.222Zm32.379-1.625a.55.55,0,0,1,.282.356l.741,2.764a.559.559,0,0,1-.069.439.586.586,0,0,1-.368.285l-6.462,1.732.64,2.391,6.029-1.616a.6.6,0,0,1,.458.052.548.548,0,0,1,.281.357l.735,2.742a.546.546,0,0,1-.066.449.6.6,0,0,1-.369.274l-6.029,1.617,1.208,4.507a.578.578,0,0,1-.4.712l-.012,0-3.46.928a.578.578,0,0,1-.436-.058.551.551,0,0,1-.282-.356l-3.781-14.1a.549.549,0,0,1,.066-.449.574.574,0,0,1,.348-.268l10.49-2.813a.6.6,0,0,1,.455.056Zm17.279-4.808a.578.578,0,0,1,.712.4l0,.011,3.781,14.1a.576.576,0,0,1-.4.711l-.011,0-3.265.875a.579.579,0,0,1-.712-.405l0-.008-1.89-7.049-1.036,3.964a2.047,2.047,0,0,1-.19.424.7.7,0,0,1-.454.308l-1.328.355a.668.668,0,0,1-.525-.045,2.005,2.005,0,0,1-.376-.272l-2.881-2.914,1.891,7.052a.578.578,0,0,1-.4.711l-.011,0-3.268.876a.6.6,0,0,1-.457-.053.548.548,0,0,1-.282-.355l-3.782-14.1a.552.552,0,0,1,.067-.449.6.6,0,0,1,.37-.274l2.895-.776a.777.777,0,0,1,.646.06c.169.11.284.189.343.235l5.1,5.117,1.856-6.981c.026-.069.086-.194.18-.375a.777.777,0,0,1,.529-.376Z" transform="translate(-3383.731 -1100.335)" fill="url(#linear-gradient)"/>
</svg>
