<svg id="LogoGetzGestor" xmlns="http://www.w3.org/2000/svg" width="240" height="120" viewBox="0 0 240 120">
  <rect id="Retângulo_4944" data-name="Retângulo 4944" width="240" height="120" fill="none" opacity="0.003"/>
  <g id="Grupo_14410" data-name="Grupo 14410" transform="translate(60 25.09)">
    <path id="Caminho_51039" data-name="Caminho 51039" d="M11.289-8.568a3.608,3.608,0,0,0-1.473-1.541,4.436,4.436,0,0,0-2.18-.52,4.763,4.763,0,0,0-2.415.609A4.266,4.266,0,0,0,3.562-8.293a5.411,5.411,0,0,0-.6,2.592,5.469,5.469,0,0,0,.6,2.6A4.251,4.251,0,0,0,5.222-1.361a4.763,4.763,0,0,0,2.415.609A4.274,4.274,0,0,0,10.6-1.774,4.438,4.438,0,0,0,12-4.543H6.871V-6.329h7.521v1.748a6.718,6.718,0,0,1-1.129,2.926A6.717,6.717,0,0,1,10.887.475a6.692,6.692,0,0,1-3.25.8A7.053,7.053,0,0,1,4.122.376,6.661,6.661,0,0,1,1.6-2.108,6.97,6.97,0,0,1,.666-5.7,6.97,6.97,0,0,1,1.6-9.295a6.641,6.641,0,0,1,2.533-2.484,7.069,7.069,0,0,1,3.505-.893,7.121,7.121,0,0,1,3.878,1.07,6.094,6.094,0,0,1,2.464,3.034ZM26.507-4.523a7,7,0,0,1-.079,1.1H18.162a3,3,0,0,0,.962,2.081,3.037,3.037,0,0,0,2.121.785A2.619,2.619,0,0,0,23.8-2.068h2.415A4.874,4.874,0,0,1,24.436.376a5.214,5.214,0,0,1-3.191.952,5.526,5.526,0,0,1-2.779-.7,4.96,4.96,0,0,1-1.924-1.964,5.99,5.99,0,0,1-.7-2.936A6.131,6.131,0,0,1,16.522-7.2a4.764,4.764,0,0,1,1.9-1.954,5.669,5.669,0,0,1,2.818-.687,5.511,5.511,0,0,1,2.729.668A4.718,4.718,0,0,1,25.84-7.3,5.648,5.648,0,0,1,26.507-4.523ZM24.171-5.23a2.547,2.547,0,0,0-.884-1.983,3.159,3.159,0,0,0-2.14-.746,2.875,2.875,0,0,0-1.983.736,3.077,3.077,0,0,0-.982,1.993Zm8.463,6.559A5.451,5.451,0,0,1,30.346.867a4.018,4.018,0,0,1-1.6-1.257,3.132,3.132,0,0,1-.628-1.777h2.317a1.58,1.58,0,0,0,.658,1.149,2.388,2.388,0,0,0,1.5.461A2.53,2.53,0,0,0,34.058-.92a1.1,1.1,0,0,0,.52-.933.958.958,0,0,0-.579-.9A10.858,10.858,0,0,0,32.163-3.4a17.72,17.72,0,0,1-1.983-.648,3.477,3.477,0,0,1-1.325-.962,2.522,2.522,0,0,1-.56-1.708A2.664,2.664,0,0,1,28.8-8.3a3.4,3.4,0,0,1,1.463-1.129,5.466,5.466,0,0,1,2.189-.412,4.521,4.521,0,0,1,2.975.933A3.349,3.349,0,0,1,36.64-6.369H34.4a1.594,1.594,0,0,0-.589-1.159,2.2,2.2,0,0,0-1.433-.432,2.327,2.327,0,0,0-1.355.334,1.034,1.034,0,0,0-.471.884.956.956,0,0,0,.314.727,2.238,2.238,0,0,0,.766.461q.452.167,1.335.422a14.525,14.525,0,0,1,1.934.638,3.6,3.6,0,0,1,1.306.952,2.52,2.52,0,0,1,.569,1.669,2.8,2.8,0,0,1-.511,1.649A3.385,3.385,0,0,1,34.823.916,5.378,5.378,0,0,1,32.634,1.329Zm9.17-9.17v5.989a1.15,1.15,0,0,0,.285.874,1.416,1.416,0,0,0,.972.265h1.375V1.152H42.668A3.406,3.406,0,0,1,40.351.445a2.913,2.913,0,0,1-.805-2.3V-7.841H38.27V-9.668h1.276v-2.69H41.8v2.69h2.631v1.826Zm9.386,9.17a5.541,5.541,0,0,1-2.769-.7,5.008,5.008,0,0,1-1.944-1.964,5.923,5.923,0,0,1-.707-2.936A5.81,5.81,0,0,1,46.5-7.193a5.018,5.018,0,0,1,1.983-1.964,5.755,5.755,0,0,1,2.808-.687,5.755,5.755,0,0,1,2.808.687A5.018,5.018,0,0,1,56.08-7.193a5.81,5.81,0,0,1,.727,2.926,5.689,5.689,0,0,1-.746,2.926A5.167,5.167,0,0,1,54.028.632,5.858,5.858,0,0,1,51.19,1.329Zm0-1.944a3.331,3.331,0,0,0,1.62-.412,3.142,3.142,0,0,0,1.227-1.237,3.977,3.977,0,0,0,.471-2,4.06,4.06,0,0,0-.452-1.993,3.049,3.049,0,0,0-1.2-1.227,3.276,3.276,0,0,0-1.61-.412,3.221,3.221,0,0,0-1.6.412,2.943,2.943,0,0,0-1.168,1.227,4.212,4.212,0,0,0-.432,1.993,3.8,3.8,0,0,0,.893,2.7A2.952,2.952,0,0,0,51.19-.615ZM61.264-8.1A3.516,3.516,0,0,1,62.57-9.383,3.862,3.862,0,0,1,64.5-9.844v2.317h-.569a2.726,2.726,0,0,0-1.993.668,3.192,3.192,0,0,0-.677,2.317V1.152H59.025V-9.668h2.239Z" transform="translate(54.97 68.308)" fill="#7438ff"/>
    <g id="Grupo_13517" data-name="Grupo 13517">
      <path id="Caminho_26424" data-name="Caminho 26424" d="M168.247,112.007H170.1c.082,0,.165.006.249.006a4.353,4.353,0,1,0-.024-8.705c-.13,0-.259.006-.387.018h-1.693V97.6c0-.067,0-.134,0-.2a4.372,4.372,0,0,0-8.744.023c0,.047,0,.093,0,.139h0v5.769h-1.9c-.079,0-.157-.006-.237-.006a4.353,4.353,0,1,0,.024,8.705c.132,0,.264-.006.393-.018h1.721v13.985q-.026.37-.024.746a9.278,9.278,0,0,0,.2,2,10.5,10.5,0,0,0,10.343,8.438c.182,0,.366-.005.552-.014v-.051a4.352,4.352,0,0,0,0-8.693v-.082c-.035,0-.071,0-.107,0a2.21,2.21,0,0,1-2.211-2.093h-.012v-14.24Z" transform="translate(-84.887 -93.053)" fill="#7438ff" stroke="rgba(0,0,0,0)" stroke-width="1" fill-rule="evenodd"/>
      <path id="Caminho_26425" data-name="Caminho 26425" d="M125.283,107.195a16.943,16.943,0,1,0,.091,33.885c4.165-.011,11.222-2.3,12.681-6.542a4.455,4.455,0,0,0-7.3-4.683l.012-.04a7.919,7.919,0,0,1-12.819-2.884h14.756v0l4.579.015C147.794,126.982,140.29,107.155,125.283,107.195Zm.024,9.051a7.9,7.9,0,0,1,7.025,4.224.156.156,0,0,1,.009.019H118.315l.008-.017A7.9,7.9,0,0,1,125.307,116.246Z" transform="translate(-72.384 -97.053)" fill="#7438ff" stroke="rgba(0,0,0,0)" stroke-width="1" fill-rule="evenodd"/>
      <path id="Caminho_26426" data-name="Caminho 26426" d="M210.089,132.224c-.4-.038-.812-.028-1.22-.028h-9.542c4.173-5.4,8.3-10.831,12.572-16.157a17.859,17.859,0,0,0,1.608-2.248,4.317,4.317,0,0,0,.531-2.091,4.363,4.363,0,0,0-4.384-4.341h-.011v-.024H190.054v.016a4.353,4.353,0,1,0,.058,8.706c.088,0,.176,0,.262-.009h10.152l-11.991,15.509c-1.267,1.639-2.813,2.824-2.807,5a4.363,4.363,0,0,0,4.36,4.341v.008h19.589a4.352,4.352,0,0,0,.411-8.686Z" transform="translate(-94.039 -97.093)" fill="#7438ff" stroke="rgba(0,0,0,0)" stroke-width="1" fill-rule="evenodd"/>
      <path id="Caminho_26427" data-name="Caminho 26427" d="M78.658,101.28a4.533,4.533,0,0,0-7.564,4.392,16.953,16.953,0,1,0,16.387,28.34l.023.011a16.883,16.883,0,0,0,.227-23.71Zm2.426,26.352a7.962,7.962,0,0,1-11.226,0,7.878,7.878,0,0,1,0-11.178,7.962,7.962,0,0,1,11.226,0A7.879,7.879,0,0,1,81.084,127.632Z" transform="translate(-58.433 -95.012)" fill="#7438ff" stroke="rgba(0,0,0,0)" stroke-width="1" fill-rule="evenodd"/>
      <path id="Caminho_26428" data-name="Caminho 26428" d="M85.811,154.578a4.511,4.511,0,0,0-2.606,5.839,7.877,7.877,0,0,1-1.943,8.561,7.965,7.965,0,0,1-8.687,1.5,7.82,7.82,0,0,1-4.184-4.384,4.535,4.535,0,0,0-8.47,3.244,17.018,17.018,0,0,0,17.67,10.761,17.428,17.428,0,0,0,4.336-1.048,16.913,16.913,0,0,0,9.748-21.874A4.543,4.543,0,0,0,85.811,154.578Z" transform="translate(-58.764 -110.371)" fill="#7438ff" stroke="rgba(0,0,0,0)" stroke-width="1" fill-rule="evenodd"/>
    </g>
  </g>
</svg>
