<svg id="BtnTertiaryIcon" xmlns="http://www.w3.org/2000/svg" width="56" height="56" viewBox="0 0 56 56">
  <g id="IconWebSite32" transform="translate(12 12)">
    <rect id="Retângulo_1554" data-name="Retângulo 1554" width="32" height="32" fill="none" opacity="0"/>
    <path id="Caminho_57035" data-name="Caminho 57035" d="M1322.561,258.481a12,12,0,1,1,12-12A12.013,12.013,0,0,1,1322.561,258.481Zm-2.379-10.8c.206,5.519,1.8,8.4,2.379,8.4s2.171-2.881,2.377-8.4Zm7.157,0a22.938,22.938,0,0,1-1.469,7.812,9.628,9.628,0,0,0,6.215-7.812Zm-14.3,0a9.628,9.628,0,0,0,6.215,7.812,22.973,22.973,0,0,1-1.469-7.812Zm14.3-2.4h4.746a9.628,9.628,0,0,0-6.215-7.811A22.936,22.936,0,0,1,1327.339,245.281Zm-7.157,0h4.756c-.206-5.518-1.8-8.4-2.377-8.4S1320.389,239.763,1320.183,245.281Zm-7.147,0h4.746a22.971,22.971,0,0,1,1.469-7.811A9.628,9.628,0,0,0,1313.036,245.281Z" transform="translate(-1306.561 -230.48)" fill="#231f20"/>
  </g>
</svg>
