<svg xmlns="http://www.w3.org/2000/svg" width="40" height="40" viewBox="0 0 40 40">
  <circle id="Elipse_38" data-name="Elipse 38" cx="20" cy="20" r="20" fill="#eb3340" opacity="0.05"/>
  <g id="IconLinkedin" transform="translate(8 8)">
    <rect id="rect837" width="24" height="24" fill="none"/>
    <path id="path4" d="M27.861,11.264H12.806a1.471,1.471,0,0,0-1.541,1.4V27.758A1.587,1.587,0,0,0,12.806,29.3H27.856A1.507,1.507,0,0,0,29.3,27.758V12.669a1.383,1.383,0,0,0-1.443-1.4Zm-11,15.037H14.272V18.266h2.584Zm-1.2-9.257h-.019a1.405,1.405,0,1,1,.019,0ZM26.3,26.3H23.717V21.908c0-1.053-.376-1.772-1.311-1.772a1.413,1.413,0,0,0-1.325.954,1.741,1.741,0,0,0-.089.635V26.3H18.407V18.266h2.584v1.118a2.617,2.617,0,0,1,2.331-1.306c1.7,0,2.98,1.118,2.98,3.529Z" transform="translate(-8.284 -8.283)" fill="#eb3340"/>
  </g>
</svg>
