<svg xmlns="http://www.w3.org/2000/svg" width="168.198" height="44" viewBox="0 0 168.198 44">
  <g id="Grupo_19294" data-name="Grupo 19294" transform="translate(-380 -1201.201)">
    <path id="Caminho_57049" data-name="Caminho 57049" d="M5800.787,21896.531a4.44,4.44,0,0,1-1.5-.9l.973-1.164a4.824,4.824,0,0,0,1.052.662,2.809,2.809,0,0,0,1.18.246,1.44,1.44,0,0,0,.8-.187.588.588,0,0,0,.283-.518v-.021a.624.624,0,0,0-.06-.283.584.584,0,0,0-.224-.23,2.511,2.511,0,0,0-.461-.213c-.2-.07-.452-.146-.765-.225a9.319,9.319,0,0,1-1.029-.311,2.865,2.865,0,0,1-.782-.42,1.707,1.707,0,0,1-.5-.625,2.171,2.171,0,0,1-.178-.93v-.021a2.156,2.156,0,0,1,.191-.924,2.085,2.085,0,0,1,.536-.711,2.423,2.423,0,0,1,.824-.459,3.3,3.3,0,0,1,1.056-.162,4.51,4.51,0,0,1,1.511.246,4.449,4.449,0,0,1,1.267.707l-.855,1.238a5.375,5.375,0,0,0-.981-.539,2.5,2.5,0,0,0-.962-.2,1.171,1.171,0,0,0-.721.186.571.571,0,0,0-.24.465v.021a.675.675,0,0,0,.069.316.639.639,0,0,0,.251.24,2.456,2.456,0,0,0,.5.2c.21.063.477.139.8.225a7.313,7.313,0,0,1,1.012.336,2.706,2.706,0,0,1,.75.449,1.683,1.683,0,0,1,.46.613,2.068,2.068,0,0,1,.155.842v.021a2.339,2.339,0,0,1-.2.99,2.02,2.02,0,0,1-.562.727,2.6,2.6,0,0,1-.861.447,3.739,3.739,0,0,1-1.109.156A4.923,4.923,0,0,1,5800.787,21896.531Zm-127.082-.1a3.963,3.963,0,0,1-1.256-.822,3.677,3.677,0,0,1-.822-1.219,3.821,3.821,0,0,1-.293-1.5v-.023a3.764,3.764,0,0,1,.3-1.5,3.816,3.816,0,0,1,2.088-2.061,4.078,4.078,0,0,1,1.6-.307,4.035,4.035,0,0,1,1.591.307,3.892,3.892,0,0,1,1.256.822,3.683,3.683,0,0,1,.823,1.217,3.849,3.849,0,0,1,.293,1.5v.021a3.76,3.76,0,0,1-.3,1.5,3.837,3.837,0,0,1-2.088,2.061,4.116,4.116,0,0,1-1.6.3A4.072,4.072,0,0,1,5673.706,21896.43Zm.678-5.73a2.1,2.1,0,0,0-.705.5,2.393,2.393,0,0,0-.459.746,2.438,2.438,0,0,0-.166.9v.021a2.494,2.494,0,0,0,.166.908,2.247,2.247,0,0,0,1.186,1.254,2.148,2.148,0,0,0,.914.188,2.24,2.24,0,0,0,.907-.18,2.056,2.056,0,0,0,.711-.5,2.336,2.336,0,0,0,.459-.742,2.448,2.448,0,0,0,.165-.9v-.023a2.52,2.52,0,0,0-.165-.908,2.3,2.3,0,0,0-.47-.748,2.24,2.24,0,0,0-.722-.506,2.185,2.185,0,0,0-.908-.187A2.237,2.237,0,0,0,5674.384,21890.7Zm-28.334,5.73a3.974,3.974,0,0,1-1.256-.822,3.669,3.669,0,0,1-.822-1.219,3.83,3.83,0,0,1-.294-1.5v-.023a3.79,3.79,0,0,1,.3-1.5,3.88,3.88,0,0,1,.828-1.229,3.8,3.8,0,0,1,1.26-.832,4.081,4.081,0,0,1,1.6-.307,4.04,4.04,0,0,1,1.592.307,3.872,3.872,0,0,1,1.255.822,3.662,3.662,0,0,1,.823,1.217,3.823,3.823,0,0,1,.294,1.5v.021a3.794,3.794,0,0,1-.3,1.5,3.837,3.837,0,0,1-2.088,2.061,4.116,4.116,0,0,1-1.6.3A4.072,4.072,0,0,1,5646.049,21896.43Zm.678-5.73a2.08,2.08,0,0,0-.7.5,2.359,2.359,0,0,0-.459.746,2.429,2.429,0,0,0-.167.9v.021a2.485,2.485,0,0,0,.167.908,2.239,2.239,0,0,0,1.186,1.254,2.146,2.146,0,0,0,.913.188,2.256,2.256,0,0,0,.91-.18,2.069,2.069,0,0,0,.709-.5,2.352,2.352,0,0,0,.459-.742,2.428,2.428,0,0,0,.165-.9v-.023a2.5,2.5,0,0,0-.165-.908,2.308,2.308,0,0,0-.469-.748,2.24,2.24,0,0,0-.722-.506,2.181,2.181,0,0,0-.908-.187A2.237,2.237,0,0,0,5646.728,21890.7Zm34.766,5.191a3.3,3.3,0,0,1-.866-2.488v-4.273h1.646v4.23a1.987,1.987,0,0,0,.426,1.383,1.53,1.53,0,0,0,1.186.465,1.562,1.562,0,0,0,1.187-.447,1.9,1.9,0,0,0,.426-1.346v-4.285h1.646v4.219a4.305,4.305,0,0,1-.23,1.484,2.771,2.771,0,0,1-.656,1.053,2.666,2.666,0,0,1-1.037.631,4.123,4.123,0,0,1-1.356.209A3.271,3.271,0,0,1,5681.493,21895.891Zm115.428.828-.684-1.678h-3.162l-.684,1.678h-1.677l3.2-7.531h1.517l3.205,7.531Zm-3.258-3.131h1.986l-.994-2.426Zm-9.465,3.131v-7.479h5.629v1.465h-4.005v1.516h3.525v1.463h-3.525v1.572h4.059v1.463Zm-8.354,0v-7.479h2.917a4.415,4.415,0,0,1,1.608.283,3.822,3.822,0,0,1,1.26.785,3.534,3.534,0,0,1,.818,1.182,3.7,3.7,0,0,1,.289,1.467v.023a3.757,3.757,0,0,1-.289,1.475,3.511,3.511,0,0,1-.818,1.186,3.863,3.863,0,0,1-1.26.789,4.336,4.336,0,0,1-1.608.289Zm1.645-1.486h1.272a2.531,2.531,0,0,0,.918-.16,1.94,1.94,0,0,0,.71-.459,2.157,2.157,0,0,0,.459-.7,2.382,2.382,0,0,0,.166-.908v-.021a2.443,2.443,0,0,0-.166-.91,2.148,2.148,0,0,0-.459-.715,2.027,2.027,0,0,0-.71-.463,2.451,2.451,0,0,0-.918-.166h-1.272Zm-5.16,1.486v-7.479h1.646v7.479Zm-44.905-.834a3.3,3.3,0,0,1-.864-2.488v-4.273h1.645v4.232a1.974,1.974,0,0,0,.428,1.381,1.52,1.52,0,0,0,1.186.467,1.561,1.561,0,0,0,1.186-.449,1.886,1.886,0,0,0,.427-1.346v-4.285h1.646v4.221a4.358,4.358,0,0,1-.229,1.484,2.839,2.839,0,0,1-.658,1.053,2.69,2.69,0,0,1-1.036.629,4.123,4.123,0,0,1-1.356.209A3.274,3.274,0,0,1,5727.424,21895.885Zm-14.314.531a4.48,4.48,0,0,1-1.5-.906l.973-1.164a4.85,4.85,0,0,0,1.053.664,2.8,2.8,0,0,0,1.18.246,1.414,1.414,0,0,0,.8-.187.59.59,0,0,0,.284-.52v-.018a.653.653,0,0,0-.06-.287.606.606,0,0,0-.226-.229,2.315,2.315,0,0,0-.459-.213,7.593,7.593,0,0,0-.766-.225,9.791,9.791,0,0,1-1.028-.309,2.984,2.984,0,0,1-.782-.424,1.684,1.684,0,0,1-.5-.625,2.157,2.157,0,0,1-.176-.928v-.021a2.163,2.163,0,0,1,.191-.924,2.088,2.088,0,0,1,.537-.711,2.38,2.38,0,0,1,.823-.461,3.352,3.352,0,0,1,1.056-.158,4.47,4.47,0,0,1,1.512.246,4.34,4.34,0,0,1,1.266.7l-.854,1.24a5.344,5.344,0,0,0-.984-.539,2.487,2.487,0,0,0-.96-.2,1.166,1.166,0,0,0-.722.186.571.571,0,0,0-.24.465v.021a.667.667,0,0,0,.07.314.628.628,0,0,0,.252.242,2.415,2.415,0,0,0,.5.2q.315.094.8.223a7.96,7.96,0,0,1,1.013.336,2.852,2.852,0,0,1,.75.449,1.711,1.711,0,0,1,.46.613,2.088,2.088,0,0,1,.155.846v.021a2.308,2.308,0,0,1-.2.988,2.007,2.007,0,0,1-.562.725,2.55,2.55,0,0,1-.861.451,3.8,3.8,0,0,1-1.11.152A5.014,5.014,0,0,1,5713.109,21896.416Zm41.673.24-3.023-7.533h1.817l1.954,5.266,1.956-5.266h1.773l-3.024,7.533Zm-61.421-.049-1.6-2.393h-1.293v2.393h-1.645v-7.479h3.418a2.951,2.951,0,0,1,2.18.76,2.308,2.308,0,0,1,.641,1.709v.021a2.346,2.346,0,0,1-.444,1.479,2.586,2.586,0,0,1-1.16.84l1.827,2.67Zm-2.895-3.846h1.667a1.369,1.369,0,0,0,.934-.289.979.979,0,0,0,.326-.77v-.02a.952.952,0,0,0-.342-.8,1.513,1.513,0,0,0-.951-.266h-1.635Zm-24.346,3.846v-2.947l-2.873-4.531h1.923l1.783,3,1.817-3h1.869l-2.874,4.5v2.982Zm-8.491,0-1.6-2.393h-1.292v2.393h-1.646v-7.479h3.419a2.948,2.948,0,0,1,2.179.76,2.3,2.3,0,0,1,.641,1.709v.021a2.343,2.343,0,0,1-.443,1.479,2.58,2.58,0,0,1-1.159.84l1.827,2.67Zm-2.9-3.846h1.666a1.37,1.37,0,0,0,.935-.289.979.979,0,0,0,.327-.77v-.02a.957.957,0,0,0-.342-.8,1.512,1.512,0,0,0-.951-.266h-1.635Zm-17.732,3.846v-7.479h5.694v1.486h-4.049v1.611h3.567v1.484h-3.567v2.9Zm111.884-.006v-7.479h1.646v7.479Zm-5.256,0v-5.961h-2.276v-1.518h6.2v1.518h-2.276v5.961Zm-8.877,0v-7.479h3.056a3.577,3.577,0,0,1,1.2.188,2.53,2.53,0,0,1,.9.529,2.319,2.319,0,0,1,.566.816,2.721,2.721,0,0,1,.2,1.053v.021a2.624,2.624,0,0,1-.234,1.143,2.344,2.344,0,0,1-.647.822,2.85,2.85,0,0,1-.96.5,4.2,4.2,0,0,1-1.181.164h-1.25v2.244Zm1.645-3.709h1.3a1.331,1.331,0,0,0,.961-.324,1.071,1.071,0,0,0,.343-.807v-.021a1.025,1.025,0,0,0-.358-.844,1.522,1.522,0,0,0-.978-.287H5736.4Zm-12.9,3.709-1.6-2.395H5720.6v2.395h-1.646v-7.479h3.419a2.949,2.949,0,0,1,2.178.76,2.305,2.305,0,0,1,.642,1.707v.021a2.351,2.351,0,0,1-.444,1.48,2.546,2.546,0,0,1-1.16.838l1.828,2.672Zm-2.894-3.846h1.666a1.348,1.348,0,0,0,.934-.291.966.966,0,0,0,.326-.768v-.02a.957.957,0,0,0-.341-.8,1.511,1.511,0,0,0-.95-.266H5720.6Zm-12,3.846v-7.479h1.645v7.479Zm-8.429,0v-7.479h2.916a4.453,4.453,0,0,1,1.608.283,3.793,3.793,0,0,1,1.26.785,3.5,3.5,0,0,1,.818,1.182,3.716,3.716,0,0,1,.289,1.469v.02a3.775,3.775,0,0,1-.289,1.477,3.484,3.484,0,0,1-.818,1.184,3.875,3.875,0,0,1-1.26.793,4.372,4.372,0,0,1-1.608.287Zm1.645-1.486h1.271a2.538,2.538,0,0,0,.92-.158,1.992,1.992,0,0,0,.709-.461,2.182,2.182,0,0,0,.459-.705,2.379,2.379,0,0,0,.165-.906v-.023a2.422,2.422,0,0,0-.165-.906,2.173,2.173,0,0,0-.459-.717,2.055,2.055,0,0,0-.709-.465,2.539,2.539,0,0,0-.92-.164h-1.271Zm58.594,1.486v-7.479h5.629v1.465h-4.005v1.516h3.525v1.463h-3.525v1.572h4.06v1.463Z" transform="translate(-5257.001 -20651.625)" fill="#979eaf"/>
    <path id="Caminho_57048" data-name="Caminho 57048" d="M5687.179,21919.346a6.345,6.345,0,0,1-.69-.037v.037h-4.88c-2.122,0-2.971-.637-3.565-2.461l-1.315-3.9H5667.9l-1.316,3.9c-.594,1.824-1.443,2.461-3.564,2.461h-19.5c-2.41,0-3.45-.936-3.45-3.1V21896.3c0-.6-.378-.934-1.04-.934H5637V21889h8.081c2.411,0,3.451.934,3.451,3.1v19.943c0,.6.379.936,1.04.936h4.442c.662,0,1.04-.34,1.04-.936v-1.654h5.634l7.681-21.387h7.892l7.82,21.775v-15.41h-2.758V21889H5694.6c6.069,0,10.312,2.715,10.312,7.934a7.272,7.272,0,0,1-3.522,6.449v.086a6.8,6.8,0,0,1,4.753,6.834c0,6.619-5.517,9.039-11.542,9.039Zm4.5-7.3a.85.85,0,0,0,.933.936h2.717a2.916,2.916,0,0,0,3.012-3.186,2.816,2.816,0,0,0-2.97-3.1h-3.692Zm-20.636-10.268-1.528,5.049h5.6l-1.528-5.049c-.593-1.912-1.229-5.01-1.229-5.01h-.085S5671.635,21899.865,5671.041,21901.777Zm20.636-1.018h3.013a2.547,2.547,0,0,0,2.588-2.8,2.441,2.441,0,0,0-2.715-2.59h-2.886Z" transform="translate(-5157.95 -20687.803)" fill="#979eaf"/>
    <path id="Caminho_57050" data-name="Caminho 57050" d="M5690.146,21919.344l-2.632-4.924c-.212-.381-.509-1.1-.509-1.1h-.084s-.3.723-.51,1.1l-2.588,4.924h-8.062l1.437-2.262a14.65,14.65,0,0,1-7.863,2.262c-5.287,0-8.847-2.7-10.478-6.256v6.256h-7.342v-12.818c0-2.035-.806-2.885-2.419-2.885a4.411,4.411,0,0,0-4.371,3.227,8.429,8.429,0,0,0-.382,2.8v9.676H5637V21889h7.342v9.592a18.688,18.688,0,0,1-.085,1.867h.085a7.506,7.506,0,0,1,6.663-3.48c4.019,0,7.228,1.689,7.77,6.635,1.583-3.682,5.091-6.17,9.949-6.17,6.175,0,9.669,4.307,9.669,10.117,0,.689-.163,2.193-.163,2.193h-13.2a4.67,4.67,0,0,0,4.875,3.738,10.966,10.966,0,0,0,5.77-2.113l2.339,4.422,4.625-7.279-7.046-11.033h8.276l2.376,4.879c.3.553.68,1.443.68,1.443H5687s.425-.891.68-1.443l2.376-4.879h8.275l-7,11.033,6.874,10.822Zm-24.957-13.611h6.134a2.848,2.848,0,0,0-2.763-3.006A3.427,3.427,0,0,0,5665.189,21905.732Zm31.928,6.533c0-6.365,9.293-7.088,12.688-7.088h.3v-.381c0-1.824-1.4-2.418-3.225-2.418-2.758,0-5.9,2.078-5.9,2.078l-2.546-5.176a16.521,16.521,0,0,1,9.166-2.844c6.154,0,9.845,3.354,9.845,8.914v13.449h-6.706v-1.316a11.488,11.488,0,0,1,.085-1.357h-.085a6.8,6.8,0,0,1-6.2,3.184C5700.469,21919.311,5697.117,21916.6,5697.117,21912.266Zm7.383-.383c0,1.02.637,1.824,2.08,1.824a4.052,4.052,0,0,0,3.606-3.861v-.467h-.679C5707.173,21909.379,5704.5,21910.061,5704.5,21911.883Z" transform="translate(-5257 -20687.281)" fill="#979eaf"/>
    <path id="path1561" d="M-3.532-12.233l-2.221-3.846,2.221-3.846H.908l2.22,3.846L.908-12.233Z" transform="translate(471.059 1237.678)" fill="#979eaf"/>
  </g>
</svg>
