<svg id="LogoGetzFood" xmlns="http://www.w3.org/2000/svg" width="240" height="120" viewBox="0 0 240 120">
  <rect id="Retângulo_1551" data-name="Retângulo 1551" width="240" height="120" fill="none" opacity="0.003"/>
  <g id="Grupo_13947" data-name="Grupo 13947" transform="translate(58.125 24)">
    <g id="Grupo_13946" data-name="Grupo 13946">
      <path id="Caminho_26424" data-name="Caminho 26424" d="M168.749,112.578h1.914c.085,0,.169.007.257.006a4.487,4.487,0,1,0-.025-8.975c-.135,0-.268.006-.4.019H168.75v-5.9c0-.069,0-.138,0-.208a4.512,4.512,0,0,0-9.024.024c0,.048,0,.1,0,.143h0v5.948h-1.964c-.081,0-.162-.007-.244-.006a4.487,4.487,0,1,0,.024,8.975c.137,0,.272-.007.406-.019h1.776V127q-.026.381-.025.769a9.556,9.556,0,0,0,.2,2.061,10.837,10.837,0,0,0,10.673,8.7c.187,0,.378-.005.57-.014v-.052a4.487,4.487,0,0,0,0-8.962v-.084l-.113,0a2.279,2.279,0,0,1-2.281-2.157h-.012V112.578Z" transform="translate(-82.811 -93.02)" fill="#ff004e" stroke="rgba(0,0,0,0)" stroke-width="1" fill-rule="evenodd"/>
      <path id="Caminho_26425" data-name="Caminho 26425" d="M125.883,107.2a17.467,17.467,0,1,0,.095,34.934c4.3-.012,11.58-2.368,13.086-6.745a4.6,4.6,0,0,0-7.531-4.828l.012-.042a8.175,8.175,0,0,1-13.227-2.972h15.227v0l4.725.015C149.115,127.6,141.37,107.156,125.883,107.2Zm.025,9.331a8.158,8.158,0,0,1,7.249,4.355.17.17,0,0,1,.009.02H118.694l.008-.018a8.156,8.156,0,0,1,7.206-4.359Z" transform="translate(-71.378 -96.724)" fill="#ff004e" stroke="rgba(0,0,0,0)" stroke-width="1" fill-rule="evenodd"/>
      <path id="Caminho_26426" data-name="Caminho 26426" d="M210.867,132.994c-.417-.039-.838-.029-1.259-.029h-9.846c4.306-5.567,8.567-11.167,12.973-16.657a18.427,18.427,0,0,0,1.66-2.318,4.448,4.448,0,0,0,.548-2.156,4.5,4.5,0,0,0-4.524-4.476h-.011v-.025H190.193v.017a4.488,4.488,0,1,0,.06,8.976c.091,0,.181,0,.271-.009H201l-12.373,15.989c-1.308,1.687-2.9,2.911-2.9,5.158a4.5,4.5,0,0,0,4.5,4.476v.008h20.214a4.487,4.487,0,0,0,.424-8.955Z" transform="translate(-91.195 -96.757)" fill="#ff004e" stroke="rgba(0,0,0,0)" stroke-width="1" fill-rule="evenodd"/>
      <path id="Caminho_26427" data-name="Caminho 26427" d="M79.366,101.317a4.677,4.677,0,0,0-7.805,4.527,17.482,17.482,0,1,0,16.91,29.217l.024.011a17.394,17.394,0,0,0,.234-24.444Zm2.5,27.167a8.223,8.223,0,0,1-11.584,0,8.117,8.117,0,0,1,0-11.524,8.223,8.223,0,0,1,11.584,0,8.117,8.117,0,0,1,0,11.524Z" transform="translate(-58.577 -94.837)" fill="#ff004e" stroke="rgba(0,0,0,0)" stroke-width="1" fill-rule="evenodd"/>
      <path id="Caminho_26428" data-name="Caminho 26428" d="M86.649,154.586A4.649,4.649,0,0,0,83.96,160.6a8.115,8.115,0,0,1-2,8.829,8.224,8.224,0,0,1-8.965,1.542,8.066,8.066,0,0,1-4.318-4.519,4.679,4.679,0,0,0-8.74,3.344,17.563,17.563,0,0,0,18.237,11.094,17.991,17.991,0,0,0,4.475-1.08A17.432,17.432,0,0,0,92.7,157.263,4.69,4.69,0,0,0,86.649,154.586Z" transform="translate(-58.82 -108.992)" fill="#ff004e" stroke="rgba(0,0,0,0)" stroke-width="1" fill-rule="evenodd"/>
    </g>
    <path id="Caminho_50735" data-name="Caminho 50735" d="M-84.131-23.817h-2.3v10.3h-2.589v-10.3H-90.48v-2.092h1.463v-.877A3.9,3.9,0,0,1-87.88-29.9a5.4,5.4,0,0,1,3.569-.978v2.137a2.411,2.411,0,0,0-1.644.439,2.01,2.01,0,0,0-.473,1.518v.877h2.3Zm7.655,10.5a6.358,6.358,0,0,1-3.175-.8,5.738,5.738,0,0,1-2.229-2.249,6.78,6.78,0,0,1-.811-3.363,6.649,6.649,0,0,1,.833-3.352,5.752,5.752,0,0,1,2.274-2.249,6.6,6.6,0,0,1,3.22-.787,6.6,6.6,0,0,1,3.22.787,5.752,5.752,0,0,1,2.274,2.249,6.65,6.65,0,0,1,.833,3.352,6.512,6.512,0,0,1-.856,3.352,5.922,5.922,0,0,1-2.33,2.261A6.722,6.722,0,0,1-76.476-13.313Zm0-2.227a3.822,3.822,0,0,0,1.857-.472,3.6,3.6,0,0,0,1.407-1.417,4.552,4.552,0,0,0,.54-2.294,4.647,4.647,0,0,0-.518-2.283,3.494,3.494,0,0,0-1.373-1.406,3.759,3.759,0,0,0-1.846-.472,3.7,3.7,0,0,0-1.835.472,3.375,3.375,0,0,0-1.34,1.406,4.82,4.82,0,0,0-.5,2.283,4.346,4.346,0,0,0,1.024,3.093A3.387,3.387,0,0,0-76.476-15.54Zm14.364,2.227a6.358,6.358,0,0,1-3.175-.8,5.738,5.738,0,0,1-2.229-2.249,6.78,6.78,0,0,1-.811-3.363,6.65,6.65,0,0,1,.833-3.352,5.751,5.751,0,0,1,2.274-2.249A6.6,6.6,0,0,1-62-26.111a6.6,6.6,0,0,1,3.22.787,5.752,5.752,0,0,1,2.274,2.249,6.65,6.65,0,0,1,.833,3.352,6.512,6.512,0,0,1-.856,3.352,5.922,5.922,0,0,1-2.33,2.261A6.722,6.722,0,0,1-62.112-13.313Zm0-2.227a3.822,3.822,0,0,0,1.857-.472,3.6,3.6,0,0,0,1.407-1.417,4.551,4.551,0,0,0,.54-2.294,4.647,4.647,0,0,0-.518-2.283A3.494,3.494,0,0,0-60.2-23.412a3.759,3.759,0,0,0-1.846-.472,3.7,3.7,0,0,0-1.835.472,3.375,3.375,0,0,0-1.34,1.406,4.82,4.82,0,0,0-.5,2.283A4.347,4.347,0,0,0-64.69-16.63,3.387,3.387,0,0,0-62.112-15.54Zm8.128-4.229a6.855,6.855,0,0,1,.777-3.307,5.69,5.69,0,0,1,2.116-2.238,5.716,5.716,0,0,1,2.983-.8,5.822,5.822,0,0,1,2.4.529,4.906,4.906,0,0,1,1.88,1.406V-30.16h2.589v16.645H-43.83v-1.867A4.8,4.8,0,0,1-45.575-13.9a5.418,5.418,0,0,1-2.555.585,5.556,5.556,0,0,1-2.961-.821,5.794,5.794,0,0,1-2.116-2.294,7.052,7.052,0,0,1-.777-3.34Zm10.154.045a4.485,4.485,0,0,0-.529-2.227,3.713,3.713,0,0,0-1.385-1.44,3.625,3.625,0,0,0-1.846-.495,3.69,3.69,0,0,0-1.846.484,3.649,3.649,0,0,0-1.385,1.417,4.421,4.421,0,0,0-.529,2.216,4.613,4.613,0,0,0,.529,2.249,3.731,3.731,0,0,0,1.4,1.473,3.583,3.583,0,0,0,1.835.506,3.625,3.625,0,0,0,1.846-.495,3.693,3.693,0,0,0,1.385-1.451A4.551,4.551,0,0,0-43.83-19.723Z" transform="translate(164.989 85.311)" fill="#ff004e"/>
  </g>
</svg>
