<svg xmlns="http://www.w3.org/2000/svg" width="175" height="32" viewBox="0 0 175 32">
  <g id="LogoHexalabHorizontal" transform="translate(0)">
    <rect id="Retângulo_5720" data-name="Retângulo 5720" width="175" height="32" fill="none" opacity="0"/>
    <g id="Grupo_19286" data-name="Grupo 19286" transform="translate(-205.294 -2144.543)">
      <path id="path1541" d="M-4.772-11.339c0-.616-.392-.968-1.078-.968H-7.957v-6.6H.422c2.5,0,3.578.969,3.578,3.212V4.986c0,.616.392.968,1.078.968H9.684c.687,0,1.078-.352,1.078-.968V3.27H18.6V9.343c0,2.244-1.078,3.212-3.578,3.212H-1.194c-2.5,0-3.578-.968-3.578-3.212Z" transform="translate(315.96 2163.451)" fill="#eb3340"/>
      <path id="path1545" d="M0,0H7.613V9.945c0,1.144-.088,1.936-.088,1.936h.088a7.782,7.782,0,0,1,6.909-3.607c4.576,0,8.14,2.111,8.14,8.493v14.7H15.049V18.173c0-2.112-.836-2.993-2.508-2.993a4.572,4.572,0,0,0-4.532,3.345,8.757,8.757,0,0,0-.4,2.9V31.462H0Z" transform="translate(205.294 2145.081)" fill="#f1511b"/>
      <path id="path1549" d="M-20.954-12.875a2.954,2.954,0,0,0-2.865-3.117c-2.106,0-3.117,1.516-3.5,3.117Zm-2.7-8.594c6.4,0,10.027,4.466,10.027,10.49,0,.717-.169,2.275-.169,2.275H-27.484a4.844,4.844,0,0,0,5.055,3.876,11.377,11.377,0,0,0,5.983-2.191l2.7,5.1a14.651,14.651,0,0,1-9.268,3.16c-7.752,0-11.923-5.6-11.923-11.375,0-6.361,4.3-11.333,11.29-11.333" transform="translate(261.839 2175.305)" fill="#f1511b"/>
      <path id="path1553" d="M-10.944-17.141l-7.305-11.441h8.581L-7.2-23.522c.308.572.7,1.5.7,1.5h.088s.44-.924.7-1.5l2.464-5.061H5.337L-1.924-17.141,5.2-5.921h-8.36l-2.729-5.1c-.22-.4-.527-1.144-.527-1.144H-6.5s-.308.748-.528,1.144l-2.685,5.1h-8.36Z" transform="translate(263.557 2182.464)" fill="#f1511b"/>
      <path id="path1557" d="M-14.7-26.831c1.98,0,3.74-2.157,3.74-4v-.485h-.7c-2.42,0-5.193.705-5.193,2.6,0,1.056.661,1.892,2.157,1.892m3.344-8.844h.308v-.4c0-1.892-1.452-2.509-3.345-2.509-2.86,0-6.115,2.156-6.115,2.156l-2.64-5.368a17.138,17.138,0,0,1,9.5-2.948c6.381,0,10.209,3.476,10.209,9.241V-21.55h-6.953v-1.365a11.9,11.9,0,0,1,.089-1.407h-.089s-1.672,3.3-6.424,3.3c-4.224,0-7.7-2.816-7.7-7.305,0-6.6,9.636-7.348,13.157-7.348" transform="translate(292.144 2197.533)" fill="#f1511b"/>
      <path id="path1561" d="M-3.45-11.949l-2.3-3.988,2.3-3.988h4.6l2.3,3.988-2.3,3.988Z" transform="translate(299.504 2181.632)" fill="#f1511b"/>
      <path id="path1565" d="M-26.369-27.689l-1.584-5.236c-.616-1.98-1.276-5.193-1.276-5.193h-.088s-.661,3.213-1.277,5.193l-1.584,5.236Zm-17.6,6.38h.836c.7,0,.924-.22,1.188-.968l8.581-23.894h8.184L-16.6-22.276c.264.748.484.968,1.188.968h.836v6.6h-5.061c-2.2,0-3.08-.66-3.7-2.552L-24.7-21.309h-9.153l-1.364,4.049c-.616,1.892-1.5,2.552-3.7,2.552h-5.06Z" transform="translate(373.894 2190.714)" fill="#eb3340"/>
      <path id="path1569" d="M-17.536-37.247h2.816a3.022,3.022,0,0,0,3.124-3.3,2.92,2.92,0,0,0-3.08-3.212H-18.5v5.545a.881.881,0,0,0,.968.968M-15.38-49.92a2.641,2.641,0,0,0,2.684-2.9,2.531,2.531,0,0,0-2.816-2.684H-18.5v5.588Zm-11-5.588h-2.86v-6.6h13.773c6.293,0,10.693,2.816,10.693,8.228a7.545,7.545,0,0,1-3.653,6.689v.089A7.054,7.054,0,0,1-3.5-40.019c0,6.864-5.72,9.372-11.969,9.372h-7.7c-2.244,0-3.212-.968-3.212-3.212Z" transform="translate(383.204 2206.653)" fill="#eb3340"/>
    </g>
  </g>
</svg>
