<svg id="IconMarketing" xmlns="http://www.w3.org/2000/svg" width="48" height="48" viewBox="0 0 48 48">
  <rect id="Retângulo_5718" data-name="Retângulo 5718" width="48" height="48" fill="none" opacity="0"/>
  <path id="Caminho_57036" data-name="Caminho 57036" d="M838.138,567.677c-.007-.038-.016-.077-.026-.114l-2.524-9.412a1.357,1.357,0,0,0,.29-.133,3.2,3.2,0,0,0-1.577-5.882,1.313,1.313,0,0,0-.318.026l-2.527-9.425a2.5,2.5,0,0,0-4.522-.563,1.418,1.418,0,0,0-.081.156c-.041.094-4.225,9.428-9.721,10.9l-9.776,2.62h0l-2.442.654a2.64,2.64,0,0,0-1.863,3.229l.146.545a4.758,4.758,0,0,0,1.673,6.242l.147.547a2.64,2.64,0,0,0,3.229,1.864l3.564-.956,3.085,11.505a2,2,0,0,0,2.454,1.417l4.049-1.085a2.637,2.637,0,0,0,1.864-3.225,2.583,2.583,0,0,0-.318-.727c-.348-.551-.751-1.079-1.179-1.638a16.74,16.74,0,0,1-2.591-4.3,2.636,2.636,0,0,0,1.7-3.178l-.3-1.109c5.494-1.373,13.691,4.567,13.773,4.627a1.363,1.363,0,0,0,.218.131,2.525,2.525,0,0,0,3.578-2.72Zm-20.4-11.77,1.911,7.13-2.336.627h-.006l-1.223.327-.008,0-3.647.978-.011,0-.01,0-1.11.3-1.912-7.131Zm-10.106,10.351-1.911-7.13,1.018-.273,1.911,7.131Zm11.95,9.631c.361.472.7.92.966,1.315l-3.2.858-2.894-10.794,3.464-.929.272,1.017-1.121.3a1.371,1.371,0,0,0-.969,1.679A17.734,17.734,0,0,0,819.583,575.89ZM822.4,562.7l-2.113-7.879c4.5-2.652,7.69-8.527,8.722-10.63l6.27,23.389C833.328,566.265,827.622,562.748,822.4,562.7Z" transform="translate(-796.397 -536.973)" fill="#c9ced8"/>
</svg>
