<svg xmlns="http://www.w3.org/2000/svg" width="154.358" height="80.5" viewBox="0 0 154.358 80.5">
  <g id="Grupo_14411" data-name="Grupo 14411" transform="translate(0.5)">
    <path id="Caminho_25238" data-name="Caminho 25238" d="M18.6-18.365H19.92V-33.276H18.848l-6.832,10.8-6.959-10.8H3.9v14.911H5.267V-30.328l6.223,9.583,1.03.021L18.6-30.37Zm4.835-14.911v14.911h1.324V-33.276Zm13.16,14.89a14.752,14.752,0,0,0,4.089-.558,5.012,5.012,0,0,0,2.891-1.948L43.634-21l-.988-.969-.105.147a3.988,3.988,0,0,1-2.407,1.58,13.641,13.641,0,0,1-3.542.442,11.292,11.292,0,0,1-3.91-.569,4.343,4.343,0,0,1-2.292-1.885,7,7,0,0,1-.778-3.57,7.065,7.065,0,0,1,.778-3.58,4.329,4.329,0,0,1,2.292-1.9,11.292,11.292,0,0,1,3.91-.569,13.341,13.341,0,0,1,3.542.453,4.069,4.069,0,0,1,2.407,1.569l.105.147.988-.969-.063-.084a5.058,5.058,0,0,0-2.891-1.959,14.5,14.5,0,0,0-4.089-.569q-4.142,0-6.244,1.78t-2.1,5.676q0,3.875,2.1,5.655T36.592-18.386Zm10.533.021h1.366l-.042-6.424h5.613l5.928,6.424H61.9l-5.95-6.424a12.93,12.93,0,0,0,2.87-.316,3.852,3.852,0,0,0,1.987-1.148,3.551,3.551,0,0,0,.778-2.475v-.611a3.54,3.54,0,0,0-.83-2.548,3.942,3.942,0,0,0-2.092-1.127,15.034,15.034,0,0,0-3.027-.263H47.124Zm1.324-7.856v-5.644H55.6a15.565,15.565,0,0,1,1.64.063,5.8,5.8,0,0,1,1.493.253,2.265,2.265,0,0,1,1.1.779,2.362,2.362,0,0,1,.389,1.432v.421a4.641,4.641,0,0,1-.042.716A1.849,1.849,0,0,1,58.9-26.589a9.154,9.154,0,0,1-2.859.369Zm33.069.421q0-3.938-2.092-5.707t-6.275-1.769q-4.142,0-6.244,1.78t-2.1,5.7q0,3.917,2.081,5.7t6.265,1.78q4.163,0,6.265-1.79T81.518-25.8Zm-15.347,0a7.206,7.206,0,0,1,.767-3.591A4.266,4.266,0,0,1,69.23-31.3a11.384,11.384,0,0,1,3.921-.569,11.459,11.459,0,0,1,3.942.569,4.278,4.278,0,0,1,2.292,1.9,7.2,7.2,0,0,1,.767,3.6,7.016,7.016,0,0,1-.778,3.559,4.424,4.424,0,0,1-2.313,1.917,11.028,11.028,0,0,1-3.91.59,11.194,11.194,0,0,1-3.921-.579,4.326,4.326,0,0,1-2.292-1.906A7.145,7.145,0,0,1,66.171-25.8Zm18.816-7.455v14.89h8.556a15.683,15.683,0,0,0,3.248-.295,3.428,3.428,0,0,0,2.134-1.327,3.909,3.909,0,0,0,.547-1.127,4.28,4.28,0,0,0,.189-1.253,4.882,4.882,0,0,0-.5-2.211,3.507,3.507,0,0,0-1.535-1.558A3.228,3.228,0,0,0,99-27.442a3.868,3.868,0,0,0,.452-1.9,3.5,3.5,0,0,0-.83-2.538,3.975,3.975,0,0,0-2.092-1.116,15.034,15.034,0,0,0-3.027-.263Zm1.324,6.445v-5.034h7.148a18.371,18.371,0,0,1,2.4.126,3.032,3.032,0,0,1,1.577.674,2.1,2.1,0,0,1,.652,1.706,2.077,2.077,0,0,1-.62,1.643,3.127,3.127,0,0,1-1.545.716,12.5,12.5,0,0,1-2.207.168Zm11.983,4.423a2.223,2.223,0,0,1-.61,1.706,2.9,2.9,0,0,1-1.524.727,13.741,13.741,0,0,1-2.281.158H86.311v-5.581h7.926q.967,0,1.587.063a3.211,3.211,0,0,1,1.167.348,2.034,2.034,0,0,1,.862.874,3.453,3.453,0,0,1,.326.842A3.58,3.58,0,0,1,98.294-22.388Zm20.939,4.023-8.514-14.89-8.472,14.89H103.8l3.2-5.6,7.463-.021,3.2,5.623Zm-8.514-12.194,2.985,5.223-5.949.021Zm26.657-2.717h-1.366v12.721L123.774-33.276H122.7v14.911h1.324l.021-12.742,12.214,12.742h1.114Zm16.692,0h-.231a.219.219,0,0,0-.126.021h-.063a.121.121,0,0,0-.084.021l-11.394,5.981v-6.023h-1.324v14.911h1.324v-6.887l11.352,6.887h2.46l-12.929-7.9,13.371-7.013Z" transform="translate(-3.901 98.323)" fill="#16355a" stroke="rgba(0,0,0,0)" stroke-width="1"/>
    <path id="Caminho_25239" data-name="Caminho 25239" d="M0,41.71V8.41H3.334V39.44l14.61,6.521,14.61-6.521V8.41h3.333v33.3L17.944,50.093ZM25.957,15.2,17.943,31.528,9.929,15.2V38.77L6.593,37.285V8.406h3.845l7.505,15.276L25.448,8.406h3.844V37.285L25.957,38.77ZM0,5.652V0H3.358V2.683H15.928V0h4.031V2.683H32.531V0h3.356V5.652Z" transform="translate(58.317 0)" fill="#16355a"/>
  </g>
</svg>
