<svg id="IconArquivoCurriculo" xmlns="http://www.w3.org/2000/svg" width="24" height="24" viewBox="0 0 24 24">
  <rect id="Retângulo_1563" data-name="Retângulo 1563" width="24" height="24" fill="none" opacity="0"/>
  <path id="Caminho_57045" data-name="Caminho 57045" d="M623.517,292.061h-14a3,3,0,0,1-3-3v-10a3,3,0,0,1,3-3h4a1,1,0,0,1,.707.293l1.707,1.707h3.586a3,3,0,0,1,3,3h1a3,3,0,0,1,3,3v5A3,3,0,0,1,623.517,292.061Zm-11.172-2h11.172a1,1,0,0,0,1-1v-5a1,1,0,0,0-1-1h-10a1,1,0,0,0-1,1v5A2.988,2.988,0,0,1,612.345,290.061Zm-2.828-12a1,1,0,0,0-1,1v10a1,1,0,0,0,2,0v-5a3,3,0,0,1,3-3h7a1,1,0,0,0-1-1h-4a1,1,0,0,1-.707-.293l-1.707-1.707Z" transform="translate(-604.517 -272.061)" fill="#1082ff"/>
</svg>
