<svg id="IconDeveloper" xmlns="http://www.w3.org/2000/svg" width="48" height="48" viewBox="0 0 48 48">
  <rect id="Retângulo_5718" data-name="Retângulo 5718" width="48" height="48" fill="none" opacity="0"/>
  <g id="Grupo_19284" data-name="Grupo 19284" transform="translate(-798.075 -538.859)">
    <path id="Caminho_57037" data-name="Caminho 57037" d="M814.633,551.692a1.5,1.5,0,0,0-2.117-.141l-11.429,10a1.5,1.5,0,0,0,0,2.258l11.429,10a1.5,1.5,0,0,0,1.976-2.258l-10.139-8.871,10.139-8.871A1.5,1.5,0,0,0,814.633,551.692Z" fill="#c9ced8"/>
    <path id="Caminho_57038" data-name="Caminho 57038" d="M843.062,561.551l-11.428-10a1.5,1.5,0,0,0-1.975,2.258L839.8,562.68l-10.138,8.871a1.5,1.5,0,1,0,1.975,2.258l11.428-10a1.5,1.5,0,0,0,0-2.258Z" fill="#c9ced8"/>
    <path id="Caminho_57039" data-name="Caminho 57039" d="M827.468,547.338a1.5,1.5,0,0,0-1.914.916L815.6,576.467a1.5,1.5,0,1,0,2.829,1l9.958-28.213A1.5,1.5,0,0,0,827.468,547.338Z" fill="#c9ced8"/>
  </g>
</svg>
